<?xml version="1.0" encoding="utf-8"?>
<!-- Generator: Adobe Illustrator 26.0.1, SVG Export Plug-In . SVG Version: 6.00 Build 0)  -->
<svg version="1.1" xmlns="http://www.w3.org/2000/svg" xmlns:xlink="http://www.w3.org/1999/xlink" x="0px" y="0px" width="1300px"
	 height="400px" viewBox="0 0 1300 400" style="enable-background:new 0 0 1300 400;" xml:space="preserve">
<style type="text/css">
	.st0{fill:#D9D9D9;}
	.st1{opacity:0.6;}
</style>
<g id="Calque_1">
	<g>
		<g>
			<g>
				<rect x="563.6" y="211.3" class="st0" width="398.7" height="0.8"/>
			</g>
			<g>
				<path class="st0" d="M563.7,213c-0.7,0-1.2-0.6-1.2-1.2c0-0.7,0.6-1.2,1.2-1.2c0.7,0,1.2,0.6,1.2,1.2
					C564.9,212.4,564.4,213,563.7,213z"/>
			</g>
			<g>
				<path class="st0" d="M962.2,213c0.7,0,1.2-0.6,1.2-1.2c0-0.7-0.6-1.2-1.2-1.2c-0.7,0-1.2,0.6-1.2,1.2
					C961,212.4,961.6,213,962.2,213z"/>
			</g>
		</g>
		<g>
			<g>
				<polygon class="st0" points="658.7,195.6 566.9,195.6 566.9,194.7 658.4,194.7 689,164.1 765.1,164.1 765.1,164.9 689.4,164.9 
									"/>
			</g>
			<g>
				<path class="st0" d="M567,196.4c-0.7,0-1.2-0.6-1.2-1.2c0-0.7,0.6-1.2,1.2-1.2c0.7,0,1.2,0.6,1.2,1.2
					C568.2,195.8,567.7,196.4,567,196.4z"/>
			</g>
			<g>
				<path class="st0" d="M765,165.7c0.7,0,1.2-0.6,1.2-1.2s-0.6-1.2-1.2-1.2s-1.2,0.6-1.2,1.2S764.3,165.7,765,165.7z"/>
			</g>
		</g>
		<g>
			<g>
				<polygon class="st0" points="789.6,191 687.5,191 687.5,190.2 789.3,190.2 834.7,144.8 1011.8,144.8 1021.4,135.2 1069.7,135.2 
					1086.2,151.7 1155.9,151.7 1168.5,164.3 1167.9,164.9 1155.5,152.5 1085.9,152.5 1069.4,136 1021.7,136 1012.1,145.6 835,145.6 
									"/>
			</g>
			<g>
				<path class="st0" d="M687.5,191.8c-0.7,0-1.2-0.6-1.2-1.2c0-0.7,0.6-1.2,1.2-1.2c0.7,0,1.2,0.6,1.2,1.2
					C688.8,191.3,688.2,191.8,687.5,191.8z"/>
			</g>
			<g>
				<path class="st0" d="M1167.3,165.4c0.5,0.5,1.3,0.5,1.8,0c0.5-0.5,0.5-1.3,0-1.8c-0.5-0.5-1.3-0.5-1.8,0
					C1166.8,164.2,1166.8,164.9,1167.3,165.4z"/>
			</g>
		</g>
		<g>
			<g>
				<polygon class="st0" points="1008.4,180.1 822.1,180.1 822.1,179.3 1008,179.3 1025.4,161.9 1101.5,161.9 1101.5,162.7 
					1025.8,162.7 				"/>
			</g>
			<g>
				<path class="st0" d="M822.2,180.9c-0.7,0-1.2-0.6-1.2-1.2c0-0.7,0.6-1.2,1.2-1.2c0.7,0,1.2,0.6,1.2,1.2
					C823.4,180.4,822.9,180.9,822.2,180.9z"/>
			</g>
			<g>
				<path class="st0" d="M1101.4,163.5c0.7,0,1.2-0.6,1.2-1.2s-0.6-1.2-1.2-1.2s-1.2,0.6-1.2,1.2S1100.8,163.5,1101.4,163.5z"/>
			</g>
		</g>
		<g>
			<g>
				<polygon class="st0" points="641.7,183.5 580.6,183.5 580.6,182.7 641.4,182.7 675,149.2 732.1,149.2 793,88.3 1014.5,88.3 
					1014.5,89.1 793.4,89.1 732.5,150 675.3,150 				"/>
			</g>
			<g>
				<path class="st0" d="M580.7,184.4c-0.7,0-1.2-0.6-1.2-1.2c0-0.7,0.6-1.2,1.2-1.2c0.7,0,1.2,0.6,1.2,1.2
					C581.9,183.8,581.3,184.4,580.7,184.4z"/>
			</g>
			<g>
				<path class="st0" d="M1014.4,89.9c0.7,0,1.2-0.6,1.2-1.2c0-0.7-0.6-1.2-1.2-1.2c-0.7,0-1.2,0.6-1.2,1.2
					C1013.2,89.4,1013.7,89.9,1014.4,89.9z"/>
			</g>
		</g>
		<g>
			<g>
				<polygon class="st0" points="777.3,177.2 776.7,176.6 822.9,130.5 911.9,130.5 928.7,113.8 1050.6,113.8 1059.2,122.3 
					1122.7,122.3 1138.2,137.9 1137.7,138.4 1122.4,123.2 1058.9,123.2 1050.3,114.6 929,114.6 912.3,131.3 823.2,131.3 				"/>
			</g>
			<g>
				<path class="st0" d="M778,177.8c-0.5,0.5-1.3,0.5-1.8,0c-0.5-0.5-0.5-1.3,0-1.8s1.3-0.5,1.8,0
					C778.4,176.5,778.4,177.3,778,177.8z"/>
			</g>
			<g>
				<path class="st0" d="M1137,139c0.5,0.5,1.3,0.5,1.8,0c0.5-0.5,0.5-1.3,0-1.8c-0.5-0.5-1.3-0.5-1.8,0
					C1136.6,137.7,1136.6,138.5,1137,139z"/>
			</g>
		</g>
		<g>
			<g>
				<polygon class="st0" points="769.9,152.4 769.3,151.8 809.6,111.5 890.4,111.5 901.8,100.1 1078.5,100.1 1087.8,90.8 
					1088.4,91.4 1078.8,100.9 902.1,100.9 890.7,112.3 809.9,112.3 				"/>
			</g>
			<g>
				<path class="st0" d="M770.5,152.9c-0.5,0.5-1.3,0.5-1.8,0c-0.5-0.5-0.5-1.3,0-1.8c0.5-0.5,1.3-0.5,1.8,0
					C771,151.6,771,152.4,770.5,152.9z"/>
			</g>
			<g>
				<path class="st0" d="M1088.9,92c0.5-0.5,0.5-1.3,0-1.8c-0.5-0.5-1.3-0.5-1.8,0c-0.5,0.5-0.5,1.3,0,1.8
					C1087.6,92.5,1088.4,92.5,1088.9,92z"/>
			</g>
		</g>
		<g>
			<g>
				<rect x="839.1" y="166.6" class="st0" width="160.5" height="0.8"/>
			</g>
			<g>
				<path class="st0" d="M839.2,168.2c-0.7,0-1.2-0.6-1.2-1.2c0-0.7,0.6-1.2,1.2-1.2c0.7,0,1.2,0.6,1.2,1.2
					C840.4,167.7,839.9,168.2,839.2,168.2z"/>
			</g>
			<g>
				<path class="st0" d="M999.5,168.2c0.7,0,1.2-0.6,1.2-1.2c0-0.7-0.6-1.2-1.2-1.2s-1.2,0.6-1.2,1.2
					C998.3,167.7,998.8,168.2,999.5,168.2z"/>
			</g>
		</g>
		<g>
			<g>
				<polygon class="st0" points="1082.9,301 913,301 868.8,256.9 670,256.9 641.8,223.7 578.5,223.7 578.5,222.9 642.2,222.9 
					670.3,256.1 869.2,256.1 913.3,300.2 1082.9,300.2 				"/>
			</g>
			<g>
				<path class="st0" d="M578.6,224.6c-0.7,0-1.2-0.6-1.2-1.2c0-0.7,0.6-1.2,1.2-1.2s1.2,0.6,1.2,1.2
					C579.8,224,579.3,224.6,578.6,224.6z"/>
			</g>
			<g>
				<path class="st0" d="M1082.8,301.8c0.7,0,1.2-0.6,1.2-1.2s-0.6-1.2-1.2-1.2c-0.7,0-1.2,0.6-1.2,1.2S1082.1,301.8,1082.8,301.8z"
					/>
			</g>
		</g>
		<g>
			<g>
				<polygon class="st0" points="1101.1,265.6 957.9,265.6 929.3,237 669.5,237 669.5,236.2 929.7,236.2 958.3,264.8 1101.1,264.8 
									"/>
			</g>
			<g>
				<path class="st0" d="M669.5,237.8c-0.7,0-1.2-0.6-1.2-1.2s0.6-1.2,1.2-1.2s1.2,0.6,1.2,1.2S670.2,237.8,669.5,237.8z"/>
			</g>
			<g>
				<path class="st0" d="M1101,266.4c0.7,0,1.2-0.6,1.2-1.2c0-0.7-0.6-1.2-1.2-1.2s-1.2,0.6-1.2,1.2
					C1099.8,265.9,1100.3,266.4,1101,266.4z"/>
			</g>
		</g>
		<g>
			<g>
				<polygon class="st0" points="1121.4,285.5 1020.5,285.5 1011.2,276.2 932.2,276.2 901.3,245.2 901.8,244.6 932.6,275.3 
					1011.5,275.3 1020.8,284.7 1121.4,284.7 				"/>
			</g>
			<g>
				<circle class="st0" cx="901.6" cy="244.9" r="1.2"/>
			</g>
			<g>
				<path class="st0" d="M1121.3,286.3c0.7,0,1.2-0.6,1.2-1.2c0-0.7-0.6-1.2-1.2-1.2c-0.7,0-1.2,0.6-1.2,1.2
					C1120.1,285.8,1120.6,286.3,1121.3,286.3z"/>
			</g>
		</g>
		<g>
			<g>
				<rect x="791.9" y="224.4" class="st0" width="162.9" height="0.8"/>
			</g>
			<g>
				<path class="st0" d="M792,226c-0.7,0-1.2-0.6-1.2-1.2c0-0.7,0.6-1.2,1.2-1.2c0.7,0,1.2,0.6,1.2,1.2
					C793.2,225.5,792.6,226,792,226z"/>
			</g>
			<g>
				<path class="st0" d="M954.8,226c0.7,0,1.2-0.6,1.2-1.2c0-0.7-0.6-1.2-1.2-1.2s-1.2,0.6-1.2,1.2C953.5,225.5,954.1,226,954.8,226
					z"/>
			</g>
		</g>
		<g>
			<g>
				<polygon class="st0" points="1019.6,250.7 957.6,250.7 957.6,249.8 1019.2,249.8 1044.1,225 1158,225 1158,225.8 1044.4,225.8 
									"/>
			</g>
			<g>
				<circle class="st0" cx="957.7" cy="250.3" r="1.2"/>
			</g>
			<g>
				<path class="st0" d="M1158,226.6c0.7,0,1.2-0.6,1.2-1.2s-0.6-1.2-1.2-1.2s-1.2,0.6-1.2,1.2S1157.3,226.6,1158,226.6z"/>
			</g>
		</g>
		<g>
			<g>
				<polygon class="st0" points="1124.5,210.3 1016.1,210.3 1003.1,197.2 874.4,197.2 865.6,188.4 866.2,187.8 874.8,196.4 
					1003.4,196.4 1016.5,209.5 1124.5,209.5 				"/>
			</g>
			<g>
				<path class="st0" d="M865.1,189.1c-0.5-0.5-0.5-1.3,0-1.8c0.5-0.5,1.3-0.5,1.8,0c0.5,0.5,0.5,1.3,0,1.8
					C866.4,189.5,865.6,189.5,865.1,189.1z"/>
			</g>
			<g>
				<path class="st0" d="M1124.4,211.1c0.7,0,1.2-0.6,1.2-1.2c0-0.7-0.6-1.2-1.2-1.2c-0.7,0-1.2,0.6-1.2,1.2
					C1123.2,210.5,1123.7,211.1,1124.4,211.1z"/>
			</g>
		</g>
		<g>
			<g>
				<rect x="722" y="199.2" class="st0" width="88.1" height="0.8"/>
			</g>
			<g>
				<path class="st0" d="M722,200.9c-0.7,0-1.2-0.6-1.2-1.2c0-0.7,0.6-1.2,1.2-1.2c0.7,0,1.2,0.6,1.2,1.2
					C723.3,200.3,722.7,200.9,722,200.9z"/>
			</g>
			<g>
				<path class="st0" d="M810,200.9c0.7,0,1.2-0.6,1.2-1.2c0-0.7-0.6-1.2-1.2-1.2c-0.7,0-1.2,0.6-1.2,1.2
					C808.7,200.3,809.3,200.9,810,200.9z"/>
			</g>
		</g>
		<g>
			<g>
				<polygon class="st0" points="1173.3,193.9 1088.4,193.9 1073.9,179.4 1029.1,179.4 1029.1,178.6 1074.3,178.6 1088.8,193.1 
					1172.9,193.1 1185.4,180.6 1186,181.2 				"/>
			</g>
			<g>
				<path class="st0" d="M1029.1,180.2c-0.7,0-1.2-0.6-1.2-1.2c0-0.7,0.6-1.2,1.2-1.2c0.7,0,1.2,0.6,1.2,1.2
					C1030.4,179.7,1029.8,180.2,1029.1,180.2z"/>
			</g>
			<g>
				<path class="st0" d="M1186.5,181.8c0.5-0.5,0.5-1.3,0-1.8c-0.5-0.5-1.3-0.5-1.8,0c-0.5,0.5-0.5,1.3,0,1.8
					C1185.2,182.3,1186,182.3,1186.5,181.8z"/>
			</g>
		</g>
		<g>
			<g>
				<polygon class="st0" points="843,282.6 716.4,282.6 699,265.2 699.6,264.6 716.7,281.7 843,281.7 				"/>
			</g>
			<g>
				<path class="st0" d="M698.5,265.8c-0.5-0.5-0.5-1.3,0-1.8c0.5-0.5,1.3-0.5,1.8,0c0.5,0.5,0.5,1.3,0,1.8S698.9,266.3,698.5,265.8
					z"/>
			</g>
			<g>
				<path class="st0" d="M842.9,283.4c0.7,0,1.2-0.6,1.2-1.2c0-0.7-0.6-1.2-1.2-1.2c-0.7,0-1.2,0.6-1.2,1.2
					C841.7,282.8,842.2,283.4,842.9,283.4z"/>
			</g>
		</g>
		<g>
			<g>
				<polygon class="st0" points="993.5,352.6 731.7,352.6 612.5,233.4 613.1,232.8 732.1,351.8 993.1,351.8 1017.4,327.5 
					1163,327.5 1187.1,303.4 1215.8,303.4 1215.8,304.2 1187.5,304.2 1163.3,328.4 1017.7,328.4 				"/>
			</g>
			<g>
				<path class="st0" d="M612,234c-0.5-0.5-0.5-1.3,0-1.8c0.5-0.5,1.3-0.5,1.8,0c0.5,0.5,0.5,1.3,0,1.8
					C613.3,234.5,612.5,234.5,612,234z"/>
			</g>
			<g>
				<path class="st0" d="M1215.8,305c0.7,0,1.2-0.6,1.2-1.2c0-0.7-0.6-1.2-1.2-1.2c-0.7,0-1.2,0.6-1.2,1.2
					C1214.5,304.5,1215.1,305,1215.8,305z"/>
			</g>
		</g>
		<g>
			<g>
				<polygon class="st0" points="995.9,328.6 860.1,328.6 849.8,318.2 711.9,318.2 711.9,317.4 850.1,317.4 860.5,327.7 
					995.9,327.7 				"/>
			</g>
			<g>
				<path class="st0" d="M712,319c-0.7,0-1.2-0.6-1.2-1.2c0-0.7,0.6-1.2,1.2-1.2c0.7,0,1.2,0.6,1.2,1.2
					C713.2,318.5,712.7,319,712,319z"/>
			</g>
			<g>
				<path class="st0" d="M995.9,329.4c0.7,0,1.2-0.6,1.2-1.2c0-0.7-0.6-1.2-1.2-1.2s-1.2,0.6-1.2,1.2
					C994.6,328.8,995.2,329.4,995.9,329.4z"/>
			</g>
		</g>
		<g>
			<g>
				<polygon class="st0" points="1117.1,312 884.5,312 875.1,302.6 710.7,302.6 685.5,277.4 667.6,277.4 667.6,276.6 685.9,276.6 
					711,301.7 875.4,301.7 884.9,311.2 1116.8,311.2 1133.5,294.5 1178.3,294.5 1199.4,273.4 1251.7,273.4 1260.3,264.8 
					1260.9,265.4 1252,274.2 1199.8,274.2 1178.7,295.3 1133.8,295.3 				"/>
			</g>
			<g>
				<path class="st0" d="M667.7,278.2c-0.7,0-1.2-0.6-1.2-1.2c0-0.7,0.6-1.2,1.2-1.2c0.7,0,1.2,0.6,1.2,1.2
					C668.9,277.7,668.4,278.2,667.7,278.2z"/>
			</g>
			<g>
				<path class="st0" d="M1261.4,266c0.5-0.5,0.5-1.3,0-1.8c-0.5-0.5-1.3-0.5-1.8,0s-0.5,1.3,0,1.8
					C1260.2,266.5,1261,266.5,1261.4,266z"/>
			</g>
		</g>
		<g>
			<g>
				<polygon class="st0" points="1170,256.9 1110.6,256.9 1091.9,238.2 1042,238.2 1042,237.4 1092.3,237.4 1110.9,256.1 
					1169.6,256.1 1182,243.7 1182.6,244.3 				"/>
			</g>
			<g>
				<path class="st0" d="M1042.1,239.1c-0.7,0-1.2-0.6-1.2-1.2c0-0.7,0.6-1.2,1.2-1.2c0.7,0,1.2,0.6,1.2,1.2
					C1043.3,238.5,1042.7,239.1,1042.1,239.1z"/>
			</g>
			<g>
				<path class="st0" d="M1183.1,244.9c0.5-0.5,0.5-1.3,0-1.8c-0.5-0.5-1.3-0.5-1.8,0c-0.5,0.5-0.5,1.3,0,1.8
					C1181.8,245.4,1182.6,245.4,1183.1,244.9z"/>
			</g>
		</g>
		<g>
			<g>
				<polygon class="st0" points="1181.6,276.7 1142.9,276.7 1128.9,262.8 1129.5,262.2 1143.2,275.9 1181.6,275.9 				"/>
			</g>
			<g>
				<path class="st0" d="M1128.3,263.4c-0.5-0.5-0.5-1.3,0-1.8c0.5-0.5,1.3-0.5,1.8,0c0.5,0.5,0.5,1.3,0,1.8
					C1129.6,263.9,1128.8,263.9,1128.3,263.4z"/>
			</g>
			<g>
				<path class="st0" d="M1181.6,277.5c0.7,0,1.2-0.6,1.2-1.2c0-0.7-0.6-1.2-1.2-1.2c-0.7,0-1.2,0.6-1.2,1.2
					C1180.3,277,1180.9,277.5,1181.6,277.5z"/>
			</g>
		</g>
	</g>
	<g class="st1">
		<g>
			<g>
				<rect x="563.3" y="213.3" class="st0" width="305.9" height="0.6"/>
			</g>
			<g>
				<circle class="st0" cx="563.4" cy="213.7" r="1"/>
			</g>
			<g>
				<path class="st0" d="M869.2,214.6c0.5,0,1-0.4,1-1c0-0.5-0.4-1-1-1c-0.5,0-1,0.4-1,1C868.2,214.2,868.7,214.6,869.2,214.6z"/>
			</g>
		</g>
		<g>
			<g>
				<polygon class="st0" points="636.3,201.3 565.9,201.3 565.9,200.6 636,200.6 659.6,177.1 717.9,177.1 717.9,177.7 659.8,177.7 
									"/>
			</g>
			<g>
				<path class="st0" d="M565.9,201.9c-0.5,0-1-0.4-1-1s0.4-1,1-1c0.5,0,1,0.4,1,1S566.4,201.9,565.9,201.9z"/>
			</g>
			<g>
				<path class="st0" d="M717.9,178.4c0.5,0,1-0.4,1-1c0-0.5-0.4-1-1-1c-0.5,0-1,0.4-1,1C716.9,177.9,717.3,178.4,717.9,178.4z"/>
			</g>
		</g>
		<g>
			<g>
				<polygon class="st0" points="736.8,197.8 658.4,197.8 658.4,197.1 736.5,197.1 771.3,162.3 907.2,162.3 914.6,154.9 
					951.6,154.9 964.3,167.6 1017.8,167.6 1027.4,177.3 1027,177.7 1017.5,168.2 964.1,168.2 951.4,155.6 914.8,155.6 907.5,163 
					771.6,163 				"/>
			</g>
			<g>
				<circle class="st0" cx="658.4" cy="197.4" r="1"/>
			</g>
			<g>
				<path class="st0" d="M1026.5,178.1c0.4,0.4,1,0.4,1.3,0c0.4-0.4,0.4-1,0-1.3c-0.4-0.4-1-0.4-1.3,0
					C1026.1,177.2,1026.1,177.8,1026.5,178.1z"/>
			</g>
		</g>
		<g>
			<g>
				<polygon class="st0" points="904.6,189.4 761.7,189.4 761.7,188.8 904.3,188.8 917.7,175.4 976,175.4 976,176 917.9,176 				"/>
			</g>
			<g>
				<circle class="st0" cx="761.7" cy="189.1" r="1"/>
			</g>
			<g>
				<path class="st0" d="M976,176.7c0.5,0,1-0.4,1-1c0-0.5-0.4-1-1-1c-0.5,0-1,0.4-1,1C975,176.3,975.5,176.7,976,176.7z"/>
			</g>
		</g>
		<g>
			<g>
				<polygon class="st0" points="623.3,192 576.4,192 576.4,191.4 623,191.4 648.8,165.7 692.6,165.7 739.4,118.9 909.3,118.9 
					909.3,119.6 739.6,119.6 692.9,166.3 649,166.3 				"/>
			</g>
			<g>
				<circle class="st0" cx="576.4" cy="191.7" r="1"/>
			</g>
			<g>
				<circle class="st0" cx="909.2" cy="119.2" r="1"/>
			</g>
		</g>
		<g>
			<g>
				<polygon class="st0" points="727.3,187.2 726.9,186.7 762.2,151.4 830.6,151.4 843.5,138.5 937,138.5 943.6,145.1 992.3,145.1 
					1004.2,157 1003.8,157.4 992.1,145.7 943.4,145.7 936.8,139.1 843.7,139.1 830.8,152 762.5,152 				"/>
			</g>
			<g>
				<path class="st0" d="M727.8,187.6c-0.4,0.4-1,0.4-1.3,0c-0.4-0.4-0.4-1,0-1.3c0.4-0.4,1-0.4,1.3,0
					C728.2,186.6,728.2,187.2,727.8,187.6z"/>
			</g>
			<g>
				<path class="st0" d="M1003.3,157.8c0.4,0.4,1,0.4,1.3,0c0.4-0.4,0.4-1,0-1.3c-0.4-0.4-1-0.4-1.3,0
					C1002.9,156.9,1002.9,157.5,1003.3,157.8z"/>
			</g>
		</g>
		<g>
			<g>
				<polygon class="st0" points="721.6,168.1 721.1,167.7 752.1,136.7 814.1,136.7 822.8,128 958.4,128 965.5,120.9 966,121.3 
					958.6,128.6 823.1,128.6 814.3,137.4 752.3,137.4 				"/>
			</g>
			<g>
				<path class="st0" d="M722.1,168.5c-0.4,0.4-1,0.4-1.3,0c-0.4-0.4-0.4-1,0-1.3c0.4-0.4,1-0.4,1.3,0
					C722.4,167.5,722.4,168.1,722.1,168.5z"/>
			</g>
			<g>
				<path class="st0" d="M966.4,121.8c0.4-0.4,0.4-1,0-1.3c-0.4-0.4-1-0.4-1.3,0c-0.4,0.4-0.4,1,0,1.3
					C965.4,122.2,966,122.2,966.4,121.8z"/>
			</g>
		</g>
		<g>
			<g>
				<rect x="774.7" y="179" class="st0" width="123.1" height="0.6"/>
			</g>
			<g>
				<path class="st0" d="M774.8,180.3c-0.5,0-1-0.4-1-1c0-0.5,0.4-1,1-1s1,0.4,1,1C775.7,179.9,775.3,180.3,774.8,180.3z"/>
			</g>
			<g>
				<path class="st0" d="M897.8,180.3c0.5,0,1-0.4,1-1c0-0.5-0.4-1-1-1s-1,0.4-1,1C896.8,179.9,897.3,180.3,897.8,180.3z"/>
			</g>
		</g>
		<g>
			<g>
				<polygon class="st0" points="961.7,282.2 831.4,282.2 797.5,248.3 644.9,248.3 623.3,222.9 574.8,222.9 574.8,222.2 
					623.6,222.2 645.2,247.7 797.8,247.7 831.6,281.5 961.7,281.5 				"/>
			</g>
			<g>
				<path class="st0" d="M574.8,223.5c-0.5,0-1-0.4-1-1c0-0.5,0.4-1,1-1c0.5,0,1,0.4,1,1C575.8,223.1,575.4,223.5,574.8,223.5z"/>
			</g>
			<g>
				<circle class="st0" cx="961.7" cy="281.8" r="1"/>
			</g>
		</g>
		<g>
			<g>
				<polygon class="st0" points="975.7,255 865.9,255 843.9,233 644.5,233 644.5,232.4 844.2,232.4 866.1,254.4 975.7,254.4 				"/>
			</g>
			<g>
				<path class="st0" d="M644.6,233.7c-0.5,0-1-0.4-1-1c0-0.5,0.4-1,1-1c0.5,0,1,0.4,1,1C645.5,233.3,645.1,233.7,644.6,233.7z"/>
			</g>
			<g>
				<path class="st0" d="M975.7,255.6c0.5,0,1-0.4,1-1s-0.4-1-1-1c-0.5,0-1,0.4-1,1S975.1,255.6,975.7,255.6z"/>
			</g>
		</g>
		<g>
			<g>
				<polygon class="st0" points="991.3,270.2 913.9,270.2 906.7,263.1 846.2,263.1 822.4,239.3 822.8,238.9 846.4,262.5 907,262.5 
					914.1,269.6 991.3,269.6 				"/>
			</g>
			<g>
				<path class="st0" d="M822,239.8c-0.4-0.4-0.4-1,0-1.3c0.4-0.4,1-0.4,1.3,0c0.4,0.4,0.4,1,0,1.3C823,240.2,822.4,240.2,822,239.8
					z"/>
			</g>
			<g>
				<path class="st0" d="M991.2,270.9c0.5,0,1-0.4,1-1c0-0.5-0.4-1-1-1c-0.5,0-1,0.4-1,1C990.3,270.5,990.7,270.9,991.2,270.9z"/>
			</g>
		</g>
		<g>
			<g>
				<rect x="738.5" y="223.4" class="st0" width="125" height="0.6"/>
			</g>
			<g>
				<path class="st0" d="M738.5,224.6c-0.5,0-1-0.4-1-1c0-0.5,0.4-1,1-1c0.5,0,1,0.4,1,1C739.5,224.2,739.1,224.6,738.5,224.6z"/>
			</g>
			<g>
				<circle class="st0" cx="863.5" cy="223.7" r="1"/>
			</g>
		</g>
		<g>
			<g>
				<polygon class="st0" points="913.2,243.5 865.7,243.5 865.7,242.9 912.9,242.9 932,223.8 1019.4,223.8 1019.4,224.5 
					932.3,224.5 				"/>
			</g>
			<g>
				<circle class="st0" cx="865.7" cy="243.2" r="1"/>
			</g>
			<g>
				<circle class="st0" cx="1019.4" cy="224.1" r="1"/>
			</g>
		</g>
		<g>
			<g>
				<polygon class="st0" points="993.7,212.5 910.5,212.5 900.5,202.5 801.8,202.5 795.1,195.8 795.5,195.3 802.1,201.9 
					900.8,201.9 910.8,211.9 993.7,211.9 				"/>
			</g>
			<g>
				<path class="st0" d="M794.7,196.3c-0.4-0.4-0.4-1,0-1.3c0.4-0.4,1-0.4,1.3,0c0.4,0.4,0.4,1,0,1.3
					C795.6,196.6,795,196.6,794.7,196.3z"/>
			</g>
			<g>
				<path class="st0" d="M993.6,213.2c0.5,0,1-0.4,1-1c0-0.5-0.4-1-1-1c-0.5,0-1,0.4-1,1C992.7,212.7,993.1,213.2,993.6,213.2z"/>
			</g>
		</g>
		<g>
			<g>
				<rect x="684.8" y="204" class="st0" width="67.6" height="0.6"/>
			</g>
			<g>
				<path class="st0" d="M684.9,205.3c-0.5,0-1-0.4-1-1c0-0.5,0.4-1,1-1c0.5,0,1,0.4,1,1C685.8,204.9,685.4,205.3,684.9,205.3z"/>
			</g>
			<g>
				<path class="st0" d="M752.4,205.3c0.5,0,1-0.4,1-1c0-0.5-0.4-1-1-1c-0.5,0-1,0.4-1,1C751.4,204.9,751.8,205.3,752.4,205.3z"/>
			</g>
		</g>
		<g>
			<g>
				<polygon class="st0" points="1031.1,200 966,200 954.9,188.9 920.5,188.9 920.5,188.2 955.1,188.2 966.3,199.4 1030.8,199.4 
					1040.4,189.8 1040.9,190.2 				"/>
			</g>
			<g>
				<circle class="st0" cx="920.5" cy="188.6" r="1"/>
			</g>
			<g>
				<path class="st0" d="M1041.3,190.7c0.4-0.4,0.4-1,0-1.3c-0.4-0.4-1-0.4-1.3,0c-0.4,0.4-0.4,1,0,1.3
					C1040.3,191.1,1040.9,191.1,1041.3,190.7z"/>
			</g>
		</g>
		<g>
			<g>
				<polygon class="st0" points="777.7,268 680.5,268 667.2,254.7 667.7,254.2 680.8,267.4 777.7,267.4 				"/>
			</g>
			<g>
				<path class="st0" d="M666.8,255.2c-0.4-0.4-0.4-1,0-1.3c0.4-0.4,1-0.4,1.3,0c0.4,0.4,0.4,1,0,1.3
					C667.8,255.5,667.2,255.5,666.8,255.2z"/>
			</g>
			<g>
				<path class="st0" d="M777.6,268.6c0.5,0,1-0.4,1-1c0-0.5-0.4-1-1-1c-0.5,0-1,0.4-1,1C776.7,268.2,777.1,268.6,777.6,268.6z"/>
			</g>
		</g>
		<g>
			<g>
				<polygon class="st0" points="893.2,321.7 692.3,321.7 600.9,230.3 601.3,229.9 692.6,321.1 892.9,321.1 911.5,302.5 
					1023.2,302.5 1041.7,284 1063.8,284 1063.8,284.6 1042,284.6 1023.5,303.1 911.7,303.1 				"/>
			</g>
			<g>
				<path class="st0" d="M600.5,230.8c-0.4-0.4-0.4-1,0-1.3c0.4-0.4,1-0.4,1.3,0c0.4,0.4,0.4,1,0,1.3S600.8,231.2,600.5,230.8z"/>
			</g>
			<g>
				<path class="st0" d="M1063.7,285.2c0.5,0,1-0.4,1-1c0-0.5-0.4-1-1-1c-0.5,0-1,0.4-1,1C1062.8,284.8,1063.2,285.2,1063.7,285.2z"
					/>
			</g>
		</g>
		<g>
			<g>
				<polygon class="st0" points="895,303.3 790.8,303.3 782.9,295.3 677.1,295.3 677.1,294.7 783.2,294.7 791.1,302.7 895,302.7 
									"/>
			</g>
			<g>
				<path class="st0" d="M677.2,296c-0.5,0-1-0.4-1-1c0-0.5,0.4-1,1-1c0.5,0,1,0.4,1,1C678.1,295.6,677.7,296,677.2,296z"/>
			</g>
			<g>
				<path class="st0" d="M895,303.9c0.5,0,1-0.4,1-1c0-0.5-0.4-1-1-1c-0.5,0-1,0.4-1,1C894,303.5,894.5,303.9,895,303.9z"/>
			</g>
		</g>
		<g>
			<g>
				<polygon class="st0" points="988,290.6 809.6,290.6 802.3,283.4 676.2,283.4 656.9,264 643.1,264 643.1,263.4 657.1,263.4 
					676.4,282.7 802.6,282.7 809.8,290 987.8,290 1000.6,277.2 1035,277.2 1051.2,261 1091.2,261 1097.9,254.4 1098.3,254.8 
					1091.5,261.6 1051.4,261.6 1035.2,277.8 1000.9,277.8 				"/>
			</g>
			<g>
				<path class="st0" d="M643.2,264.7c-0.5,0-1-0.4-1-1c0-0.5,0.4-1,1-1c0.5,0,1,0.4,1,1C644.1,264.2,643.7,264.7,643.2,264.7z"/>
			</g>
			<g>
				<path class="st0" d="M1098.8,255.3c0.4-0.4,0.4-1,0-1.3c-0.4-0.4-1-0.4-1.3,0c-0.4,0.4-0.4,1,0,1.3
					C1097.8,255.7,1098.4,255.7,1098.8,255.3z"/>
			</g>
		</g>
		<g>
			<g>
				<polygon class="st0" points="1028.6,248.3 983,248.3 968.7,234 930.4,234 930.4,233.4 969,233.4 983.3,247.7 1028.3,247.7 
					1037.8,238.2 1038.2,238.6 				"/>
			</g>
			<g>
				<path class="st0" d="M930.4,234.6c-0.5,0-1-0.4-1-1c0-0.5,0.4-1,1-1c0.5,0,1,0.4,1,1C931.4,234.2,930.9,234.6,930.4,234.6z"/>
			</g>
			<g>
				<path class="st0" d="M1038.6,239.1c0.4-0.4,0.4-1,0-1.3s-1-0.4-1.3,0c-0.4,0.4-0.4,1,0,1.3
					C1037.7,239.5,1038.3,239.5,1038.6,239.1z"/>
			</g>
		</g>
		<g>
			<g>
				<polygon class="st0" points="1037.5,263.5 1007.8,263.5 997,252.8 997.5,252.4 1008,262.9 1037.5,262.9 				"/>
			</g>
			<g>
				<path class="st0" d="M996.6,253.3c-0.4-0.4-0.4-1,0-1.3c0.4-0.4,1-0.4,1.3,0c0.4,0.4,0.4,1,0,1.3
					C997.6,253.7,997,253.7,996.6,253.3z"/>
			</g>
			<g>
				<circle class="st0" cx="1037.5" cy="263.2" r="1"/>
			</g>
		</g>
	</g>
</g>
<g id="Calque_1_-_copie">
	<g>
		<g>
			<g>
				<rect x="343" y="211.3" class="st0" width="398.7" height="0.8"/>
			</g>
			<g>
				<path class="st0" d="M741.6,213c0.7,0,1.2-0.6,1.2-1.2c0-0.7-0.6-1.2-1.2-1.2c-0.7,0-1.2,0.6-1.2,1.2
					C740.3,212.4,740.9,213,741.6,213z"/>
			</g>
			<g>
				<path class="st0" d="M343,213c-0.7,0-1.2-0.6-1.2-1.2c0-0.7,0.6-1.2,1.2-1.2c0.7,0,1.2,0.6,1.2,1.2
					C344.3,212.4,343.7,213,343,213z"/>
			</g>
		</g>
		<g>
			<g>
				<polygon class="st0" points="646.5,195.6 738.3,195.6 738.3,194.7 646.9,194.7 616.2,164.1 540.2,164.1 540.2,164.9 
					615.9,164.9 				"/>
			</g>
			<g>
				<path class="st0" d="M738.3,196.4c0.7,0,1.2-0.6,1.2-1.2c0-0.7-0.6-1.2-1.2-1.2s-1.2,0.6-1.2,1.2
					C737,195.8,737.6,196.4,738.3,196.4z"/>
			</g>
			<g>
				<path class="st0" d="M540.2,165.7c-0.7,0-1.2-0.6-1.2-1.2s0.6-1.2,1.2-1.2s1.2,0.6,1.2,1.2S540.9,165.7,540.2,165.7z"/>
			</g>
		</g>
		<g>
			<g>
				<polygon class="st0" points="515.6,191 617.8,191 617.8,190.2 516,190.2 470.6,144.8 293.5,144.8 283.8,135.2 235.6,135.2 
					219,151.7 149.4,151.7 136.8,164.3 137.4,164.9 149.7,152.5 219.4,152.5 235.9,136 283.5,136 293.1,145.6 470.2,145.6 				"/>
			</g>
			<g>
				<path class="st0" d="M617.7,191.8c0.7,0,1.2-0.6,1.2-1.2c0-0.7-0.6-1.2-1.2-1.2c-0.7,0-1.2,0.6-1.2,1.2
					C616.5,191.3,617,191.8,617.7,191.8z"/>
			</g>
			<g>
				<path class="st0" d="M138,165.4c-0.5,0.5-1.3,0.5-1.8,0c-0.5-0.5-0.5-1.3,0-1.8c0.5-0.5,1.3-0.5,1.8,0
					C138.5,164.2,138.5,164.9,138,165.4z"/>
			</g>
		</g>
		<g>
			<g>
				<polygon class="st0" points="296.9,180.1 483.1,180.1 483.1,179.3 297.2,179.3 279.8,161.9 203.8,161.9 203.8,162.7 
					279.5,162.7 				"/>
			</g>
			<g>
				<path class="st0" d="M483.1,180.9c0.7,0,1.2-0.6,1.2-1.2c0-0.7-0.6-1.2-1.2-1.2s-1.2,0.6-1.2,1.2
					C481.8,180.4,482.4,180.9,483.1,180.9z"/>
			</g>
			<g>
				<path class="st0" d="M203.8,163.5c-0.7,0-1.2-0.6-1.2-1.2s0.6-1.2,1.2-1.2c0.7,0,1.2,0.6,1.2,1.2S204.5,163.5,203.8,163.5z"/>
			</g>
		</g>
		<g>
			<g>
				<polygon class="st0" points="663.5,183.5 724.7,183.5 724.7,182.7 663.9,182.7 630.3,149.2 573.1,149.2 512.2,88.3 290.8,88.3 
					290.8,89.1 511.9,89.1 572.8,150 630,150 				"/>
			</g>
			<g>
				<path class="st0" d="M724.6,184.4c0.7,0,1.2-0.6,1.2-1.2c0-0.7-0.6-1.2-1.2-1.2s-1.2,0.6-1.2,1.2
					C723.4,183.8,723.9,184.4,724.6,184.4z"/>
			</g>
			<g>
				<path class="st0" d="M290.8,89.9c-0.7,0-1.2-0.6-1.2-1.2c0-0.7,0.6-1.2,1.2-1.2c0.7,0,1.2,0.6,1.2,1.2
					C292.1,89.4,291.5,89.9,290.8,89.9z"/>
			</g>
		</g>
		<g>
			<g>
				<polygon class="st0" points="527.9,177.2 528.5,176.6 482.4,130.5 393.3,130.5 376.6,113.8 254.6,113.8 246,122.3 182.5,122.3 
					167,137.9 167.6,138.4 182.9,123.2 246.4,123.2 255,114.6 376.2,114.6 393,131.3 482.1,131.3 				"/>
			</g>
			<g>
				<path class="st0" d="M527.3,177.8c0.5,0.5,1.3,0.5,1.8,0c0.5-0.5,0.5-1.3,0-1.8c-0.5-0.5-1.3-0.5-1.8,0
					C526.8,176.5,526.8,177.3,527.3,177.8z"/>
			</g>
			<g>
				<path class="st0" d="M168.2,139c-0.5,0.5-1.3,0.5-1.8,0c-0.5-0.5-0.5-1.3,0-1.8c0.5-0.5,1.3-0.5,1.8,0
					C168.7,137.7,168.7,138.5,168.2,139z"/>
			</g>
		</g>
		<g>
			<g>
				<polygon class="st0" points="535.4,152.4 536,151.8 495.7,111.5 414.9,111.5 403.5,100.1 226.8,100.1 217.5,90.8 216.9,91.4 
					226.4,100.9 403.1,100.9 414.5,112.3 495.3,112.3 				"/>
			</g>
			<g>
				<path class="st0" d="M534.7,152.9c0.5,0.5,1.3,0.5,1.8,0c0.5-0.5,0.5-1.3,0-1.8c-0.5-0.5-1.3-0.5-1.8,0
					C534.3,151.6,534.3,152.4,534.7,152.9z"/>
			</g>
			<g>
				<path class="st0" d="M216.4,92c-0.5-0.5-0.5-1.3,0-1.8c0.5-0.5,1.3-0.5,1.8,0s0.5,1.3,0,1.8C217.6,92.5,216.8,92.5,216.4,92z"/>
			</g>
		</g>
		<g>
			<g>
				<rect x="305.7" y="166.6" class="st0" width="160.5" height="0.8"/>
			</g>
			<g>
				<path class="st0" d="M466.1,168.2c0.7,0,1.2-0.6,1.2-1.2c0-0.7-0.6-1.2-1.2-1.2s-1.2,0.6-1.2,1.2
					C464.8,167.7,465.4,168.2,466.1,168.2z"/>
			</g>
			<g>
				<path class="st0" d="M305.7,168.2c-0.7,0-1.2-0.6-1.2-1.2c0-0.7,0.6-1.2,1.2-1.2s1.2,0.6,1.2,1.2
					C307,167.7,306.4,168.2,305.7,168.2z"/>
			</g>
		</g>
		<g>
			<g>
				<polygon class="st0" points="222.4,301 392.3,301 436.4,256.9 635.3,256.9 663.5,223.7 726.7,223.7 726.7,222.9 663.1,222.9 
					634.9,256.1 436.1,256.1 391.9,300.2 222.4,300.2 				"/>
			</g>
			<g>
				<path class="st0" d="M726.7,224.6c0.7,0,1.2-0.6,1.2-1.2c0-0.7-0.6-1.2-1.2-1.2s-1.2,0.6-1.2,1.2
					C725.4,224,726,224.6,726.7,224.6z"/>
			</g>
			<g>
				<path class="st0" d="M222.5,301.8c-0.7,0-1.2-0.6-1.2-1.2s0.6-1.2,1.2-1.2c0.7,0,1.2,0.6,1.2,1.2S223.1,301.8,222.5,301.8z"/>
			</g>
		</g>
		<g>
			<g>
				<polygon class="st0" points="204.2,265.6 347.3,265.6 375.9,237 635.8,237 635.8,236.2 375.6,236.2 347,264.8 204.2,264.8 				
					"/>
			</g>
			<g>
				<path class="st0" d="M635.7,237.8c0.7,0,1.2-0.6,1.2-1.2s-0.6-1.2-1.2-1.2s-1.2,0.6-1.2,1.2S635.1,237.8,635.7,237.8z"/>
			</g>
			<g>
				<path class="st0" d="M204.2,266.4c-0.7,0-1.2-0.6-1.2-1.2c0-0.7,0.6-1.2,1.2-1.2s1.2,0.6,1.2,1.2
					C205.5,265.9,204.9,266.4,204.2,266.4z"/>
			</g>
		</g>
		<g>
			<g>
				<polygon class="st0" points="183.9,285.5 284.8,285.5 294.1,276.2 373,276.2 404,245.2 403.4,244.6 372.7,275.3 293.8,275.3 
					284.4,284.7 183.9,284.7 				"/>
			</g>
			<g>
				<circle class="st0" cx="403.7" cy="244.9" r="1.2"/>
			</g>
			<g>
				<path class="st0" d="M183.9,286.3c-0.7,0-1.2-0.6-1.2-1.2c0-0.7,0.6-1.2,1.2-1.2c0.7,0,1.2,0.6,1.2,1.2
					C185.2,285.8,184.6,286.3,183.9,286.3z"/>
			</g>
		</g>
		<g>
			<g>
				<rect x="350.4" y="224.4" class="st0" width="162.9" height="0.8"/>
			</g>
			<g>
				<path class="st0" d="M513.3,226c0.7,0,1.2-0.6,1.2-1.2c0-0.7-0.6-1.2-1.2-1.2c-0.7,0-1.2,0.6-1.2,1.2
					C512.1,225.5,512.6,226,513.3,226z"/>
			</g>
			<g>
				<path class="st0" d="M350.5,226c-0.7,0-1.2-0.6-1.2-1.2c0-0.7,0.6-1.2,1.2-1.2s1.2,0.6,1.2,1.2C351.7,225.5,351.2,226,350.5,226
					z"/>
			</g>
		</g>
		<g>
			<g>
				<polygon class="st0" points="285.7,250.7 347.6,250.7 347.6,249.8 286,249.8 261.2,225 147.2,225 147.2,225.8 260.8,225.8 				
					"/>
			</g>
			<g>
				<circle class="st0" cx="347.6" cy="250.3" r="1.2"/>
			</g>
			<g>
				<path class="st0" d="M147.3,226.6c-0.7,0-1.2-0.6-1.2-1.2s0.6-1.2,1.2-1.2c0.7,0,1.2,0.6,1.2,1.2S148,226.6,147.3,226.6z"/>
			</g>
		</g>
		<g>
			<g>
				<polygon class="st0" points="180.8,210.3 289.1,210.3 302.2,197.2 430.8,197.2 439.6,188.4 439,187.8 430.5,196.4 301.8,196.4 
					288.8,209.5 180.8,209.5 				"/>
			</g>
			<g>
				<path class="st0" d="M440.1,189.1c0.5-0.5,0.5-1.3,0-1.8c-0.5-0.5-1.3-0.5-1.8,0c-0.5,0.5-0.5,1.3,0,1.8
					C438.9,189.5,439.7,189.5,440.1,189.1z"/>
			</g>
			<g>
				<path class="st0" d="M180.8,211.1c-0.7,0-1.2-0.6-1.2-1.2c0-0.7,0.6-1.2,1.2-1.2c0.7,0,1.2,0.6,1.2,1.2
					C182.1,210.5,181.5,211.1,180.8,211.1z"/>
			</g>
		</g>
		<g>
			<g>
				<rect x="495.2" y="199.2" class="st0" width="88.1" height="0.8"/>
			</g>
			<g>
				<path class="st0" d="M583.2,200.9c0.7,0,1.2-0.6,1.2-1.2c0-0.7-0.6-1.2-1.2-1.2c-0.7,0-1.2,0.6-1.2,1.2
					C582,200.3,582.5,200.9,583.2,200.9z"/>
			</g>
			<g>
				<path class="st0" d="M495.3,200.9c-0.7,0-1.2-0.6-1.2-1.2c0-0.7,0.6-1.2,1.2-1.2c0.7,0,1.2,0.6,1.2,1.2
					C496.5,200.3,496,200.9,495.3,200.9z"/>
			</g>
		</g>
		<g>
			<g>
				<polygon class="st0" points="132,193.9 216.8,193.9 231.3,179.4 276.2,179.4 276.2,178.6 231,178.6 216.5,193.1 132.3,193.1 
					119.9,180.6 119.3,181.2 				"/>
			</g>
			<g>
				<path class="st0" d="M276.1,180.2c0.7,0,1.2-0.6,1.2-1.2c0-0.7-0.6-1.2-1.2-1.2c-0.7,0-1.2,0.6-1.2,1.2
					C274.9,179.7,275.4,180.2,276.1,180.2z"/>
			</g>
			<g>
				<path class="st0" d="M118.7,181.8c-0.5-0.5-0.5-1.3,0-1.8c0.5-0.5,1.3-0.5,1.8,0c0.5,0.5,0.5,1.3,0,1.8
					C120,182.3,119.2,182.3,118.7,181.8z"/>
			</g>
		</g>
		<g>
			<g>
				<polygon class="st0" points="462.3,282.6 588.9,282.6 606.3,265.2 605.7,264.6 588.5,281.7 462.3,281.7 				"/>
			</g>
			<g>
				<path class="st0" d="M606.8,265.8c0.5-0.5,0.5-1.3,0-1.8c-0.5-0.5-1.3-0.5-1.8,0c-0.5,0.5-0.5,1.3,0,1.8
					C605.5,266.3,606.3,266.3,606.8,265.8z"/>
			</g>
			<g>
				<path class="st0" d="M462.3,283.4c-0.7,0-1.2-0.6-1.2-1.2c0-0.7,0.6-1.2,1.2-1.2c0.7,0,1.2,0.6,1.2,1.2
					C463.6,282.8,463,283.4,462.3,283.4z"/>
			</g>
		</g>
		<g>
			<g>
				<polygon class="st0" points="311.8,352.6 573.5,352.6 692.7,233.4 692.1,232.8 573.2,351.8 312.1,351.8 287.9,327.5 
					142.3,327.5 118.1,303.4 89.4,303.4 89.4,304.2 117.8,304.2 141.9,328.4 287.5,328.4 				"/>
			</g>
			<g>
				<path class="st0" d="M693.3,234c0.5-0.5,0.5-1.3,0-1.8c-0.5-0.5-1.3-0.5-1.8,0c-0.5,0.5-0.5,1.3,0,1.8
					C692,234.5,692.8,234.5,693.3,234z"/>
			</g>
			<g>
				<path class="st0" d="M89.5,305c-0.7,0-1.2-0.6-1.2-1.2c0-0.7,0.6-1.2,1.2-1.2c0.7,0,1.2,0.6,1.2,1.2
					C90.7,304.5,90.2,305,89.5,305z"/>
			</g>
		</g>
		<g>
			<g>
				<polygon class="st0" points="309.3,328.6 445.1,328.6 455.5,318.2 593.3,318.2 593.3,317.4 455.1,317.4 444.8,327.7 
					309.3,327.7 				"/>
			</g>
			<g>
				<path class="st0" d="M593.2,319c0.7,0,1.2-0.6,1.2-1.2c0-0.7-0.6-1.2-1.2-1.2c-0.7,0-1.2,0.6-1.2,1.2
					C592,318.5,592.6,319,593.2,319z"/>
			</g>
			<g>
				<path class="st0" d="M309.4,329.4c-0.7,0-1.2-0.6-1.2-1.2c0-0.7,0.6-1.2,1.2-1.2s1.2,0.6,1.2,1.2
					C310.6,328.8,310.1,329.4,309.4,329.4z"/>
			</g>
		</g>
		<g>
			<g>
				<polygon class="st0" points="188.1,312 420.7,312 430.2,302.6 594.6,302.6 619.7,277.4 637.6,277.4 637.6,276.6 619.4,276.6 
					594.2,301.7 429.9,301.7 420.4,311.2 188.5,311.2 171.8,294.5 126.9,294.5 105.8,273.4 53.6,273.4 44.9,264.8 44.4,265.4 
					53.3,274.2 105.5,274.2 126.6,295.3 171.4,295.3 				"/>
			</g>
			<g>
				<path class="st0" d="M637.6,278.2c0.7,0,1.2-0.6,1.2-1.2c0-0.7-0.6-1.2-1.2-1.2c-0.7,0-1.2,0.6-1.2,1.2
					C636.3,277.7,636.9,278.2,637.6,278.2z"/>
			</g>
			<g>
				<path class="st0" d="M43.8,266c-0.5-0.5-0.5-1.3,0-1.8c0.5-0.5,1.3-0.5,1.8,0s0.5,1.3,0,1.8C45.1,266.5,44.3,266.5,43.8,266z"/>
			</g>
		</g>
		<g>
			<g>
				<polygon class="st0" points="135.3,256.9 194.7,256.9 213.3,238.2 263.3,238.2 263.3,237.4 213,237.4 194.3,256.1 135.6,256.1 
					123.3,243.7 122.7,244.3 				"/>
			</g>
			<g>
				<path class="st0" d="M263.2,239.1c0.7,0,1.2-0.6,1.2-1.2c0-0.7-0.6-1.2-1.2-1.2c-0.7,0-1.2,0.6-1.2,1.2
					C262,238.5,262.5,239.1,263.2,239.1z"/>
			</g>
			<g>
				<path class="st0" d="M122.2,244.9c-0.5-0.5-0.5-1.3,0-1.8c0.5-0.5,1.3-0.5,1.8,0c0.5,0.5,0.5,1.3,0,1.8
					C123.4,245.4,122.6,245.4,122.2,244.9z"/>
			</g>
		</g>
		<g>
			<g>
				<polygon class="st0" points="123.6,276.7 162.4,276.7 176.4,262.8 175.8,262.2 162.1,275.9 123.6,275.9 				"/>
			</g>
			<g>
				<path class="st0" d="M176.9,263.4c0.5-0.5,0.5-1.3,0-1.8s-1.3-0.5-1.8,0c-0.5,0.5-0.5,1.3,0,1.8
					C175.6,263.9,176.4,263.9,176.9,263.4z"/>
			</g>
			<g>
				<path class="st0" d="M123.7,277.5c-0.7,0-1.2-0.6-1.2-1.2c0-0.7,0.6-1.2,1.2-1.2c0.7,0,1.2,0.6,1.2,1.2
					C124.9,277,124.4,277.5,123.7,277.5z"/>
			</g>
		</g>
	</g>
	<g class="st1">
		<g>
			<g>
				<rect x="436" y="213.3" class="st0" width="305.9" height="0.6"/>
			</g>
			<g>
				<circle class="st0" cx="741.9" cy="213.7" r="1"/>
			</g>
			<g>
				<path class="st0" d="M436.1,214.6c-0.5,0-1-0.4-1-1c0-0.5,0.4-1,1-1c0.5,0,1,0.4,1,1C437,214.2,436.6,214.6,436.1,214.6z"/>
			</g>
		</g>
		<g>
			<g>
				<polygon class="st0" points="668.9,201.3 739.4,201.3 739.4,200.6 669.2,200.6 645.7,177.1 587.3,177.1 587.3,177.7 
					645.4,177.7 				"/>
			</g>
			<g>
				<path class="st0" d="M739.3,201.9c0.5,0,1-0.4,1-1s-0.4-1-1-1c-0.5,0-1,0.4-1,1S738.8,201.9,739.3,201.9z"/>
			</g>
			<g>
				<path class="st0" d="M587.4,178.4c-0.5,0-1-0.4-1-1c0-0.5,0.4-1,1-1c0.5,0,1,0.4,1,1C588.3,177.9,587.9,178.4,587.4,178.4z"/>
			</g>
		</g>
		<g>
			<g>
				<polygon class="st0" points="568.5,197.8 646.9,197.8 646.9,197.1 568.8,197.1 533.9,162.3 398.1,162.3 390.7,154.9 
					353.6,154.9 340.9,167.6 287.5,167.6 277.8,177.3 278.3,177.7 287.8,168.2 341.2,168.2 353.9,155.6 390.4,155.6 397.8,163 
					533.7,163 				"/>
			</g>
			<g>
				<circle class="st0" cx="646.8" cy="197.4" r="1"/>
			</g>
			<g>
				<path class="st0" d="M278.8,178.1c-0.4,0.4-1,0.4-1.3,0c-0.4-0.4-0.4-1,0-1.3c0.4-0.4,1-0.4,1.3,0
					C279.1,177.2,279.1,177.8,278.8,178.1z"/>
			</g>
		</g>
		<g>
			<g>
				<polygon class="st0" points="400.7,189.4 543.6,189.4 543.6,188.8 400.9,188.8 387.6,175.4 329.2,175.4 329.2,176 387.3,176 
									"/>
			</g>
			<g>
				<circle class="st0" cx="543.5" cy="189.1" r="1"/>
			</g>
			<g>
				<path class="st0" d="M329.3,176.7c-0.5,0-1-0.4-1-1c0-0.5,0.4-1,1-1s1,0.4,1,1C330.2,176.3,329.8,176.7,329.3,176.7z"/>
			</g>
		</g>
		<g>
			<g>
				<polygon class="st0" points="682,192 728.9,192 728.9,191.4 682.2,191.4 656.5,165.7 612.6,165.7 565.9,118.9 396,118.9 
					396,119.6 565.6,119.6 612.4,166.3 656.2,166.3 				"/>
			</g>
			<g>
				<circle class="st0" cx="728.8" cy="191.7" r="1"/>
			</g>
			<g>
				<circle class="st0" cx="396" cy="119.2" r="1"/>
			</g>
		</g>
		<g>
			<g>
				<polygon class="st0" points="577.9,187.2 578.4,186.7 543,151.4 474.7,151.4 461.8,138.5 368.2,138.5 361.6,145.1 312.9,145.1 
					301,157 301.5,157.4 313.2,145.7 361.9,145.7 368.5,139.1 461.5,139.1 474.4,152 542.8,152 				"/>
			</g>
			<g>
				<path class="st0" d="M577.5,187.6c0.4,0.4,1,0.4,1.3,0c0.4-0.4,0.4-1,0-1.3c-0.4-0.4-1-0.4-1.3,0S577.1,187.2,577.5,187.6z"/>
			</g>
			<g>
				<path class="st0" d="M302,157.8c-0.4,0.4-1,0.4-1.3,0c-0.4-0.4-0.4-1,0-1.3c0.4-0.4,1-0.4,1.3,0
					C302.3,156.9,302.3,157.5,302,157.8z"/>
			</g>
		</g>
		<g>
			<g>
				<polygon class="st0" points="583.7,168.1 584.1,167.7 553.2,136.7 491.2,136.7 482.5,128 346.9,128 339.7,120.9 339.3,121.3 
					346.6,128.6 482.2,128.6 490.9,137.4 552.9,137.4 				"/>
			</g>
			<g>
				<path class="st0" d="M583.2,168.5c0.4,0.4,1,0.4,1.3,0c0.4-0.4,0.4-1,0-1.3c-0.4-0.4-1-0.4-1.3,0
					C582.8,167.5,582.8,168.1,583.2,168.5z"/>
			</g>
			<g>
				<path class="st0" d="M338.9,121.8c-0.4-0.4-0.4-1,0-1.3c0.4-0.4,1-0.4,1.3,0c0.4,0.4,0.4,1,0,1.3
					C339.9,122.2,339.3,122.2,338.9,121.8z"/>
			</g>
		</g>
		<g>
			<g>
				<rect x="407.4" y="179" class="st0" width="123.1" height="0.6"/>
			</g>
			<g>
				<path class="st0" d="M530.5,180.3c0.5,0,1-0.4,1-1c0-0.5-0.4-1-1-1c-0.5,0-1,0.4-1,1C529.5,179.9,530,180.3,530.5,180.3z"/>
			</g>
			<g>
				<path class="st0" d="M407.5,180.3c-0.5,0-1-0.4-1-1c0-0.5,0.4-1,1-1s1,0.4,1,1C408.4,179.9,408,180.3,407.5,180.3z"/>
			</g>
		</g>
		<g>
			<g>
				<polygon class="st0" points="343.5,282.2 473.9,282.2 507.7,248.3 660.3,248.3 681.9,222.9 730.5,222.9 730.5,222.2 
					681.6,222.2 660,247.7 507.5,247.7 473.6,281.5 343.5,281.5 				"/>
			</g>
			<g>
				<path class="st0" d="M730.4,223.5c0.5,0,1-0.4,1-1c0-0.5-0.4-1-1-1c-0.5,0-1,0.4-1,1C729.5,223.1,729.9,223.5,730.4,223.5z"/>
			</g>
			<g>
				<circle class="st0" cx="343.6" cy="281.8" r="1"/>
			</g>
		</g>
		<g>
			<g>
				<polygon class="st0" points="329.5,255 439.4,255 461.3,233 660.7,233 660.7,232.4 461.1,232.4 439.1,254.4 329.5,254.4 				"/>
			</g>
			<g>
				<path class="st0" d="M660.7,233.7c0.5,0,1-0.4,1-1c0-0.5-0.4-1-1-1c-0.5,0-1,0.4-1,1C659.7,233.3,660.1,233.7,660.7,233.7z"/>
			</g>
			<g>
				<path class="st0" d="M329.6,255.6c-0.5,0-1-0.4-1-1s0.4-1,1-1c0.5,0,1,0.4,1,1S330.1,255.6,329.6,255.6z"/>
			</g>
		</g>
		<g>
			<g>
				<polygon class="st0" points="314,270.2 391.4,270.2 398.5,263.1 459.1,263.1 482.9,239.3 482.4,238.9 458.8,262.5 398.3,262.5 
					391.1,269.6 314,269.6 				"/>
			</g>
			<g>
				<path class="st0" d="M483.3,239.8c0.4-0.4,0.4-1,0-1.3c-0.4-0.4-1-0.4-1.3,0c-0.4,0.4-0.4,1,0,1.3
					C482.3,240.2,482.9,240.2,483.3,239.8z"/>
			</g>
			<g>
				<path class="st0" d="M314,270.9c-0.5,0-1-0.4-1-1c0-0.5,0.4-1,1-1c0.5,0,1,0.4,1,1C315,270.5,314.5,270.9,314,270.9z"/>
			</g>
		</g>
		<g>
			<g>
				<rect x="441.7" y="223.4" class="st0" width="125" height="0.6"/>
			</g>
			<g>
				<path class="st0" d="M566.7,224.6c0.5,0,1-0.4,1-1c0-0.5-0.4-1-1-1c-0.5,0-1,0.4-1,1C565.8,224.2,566.2,224.6,566.7,224.6z"/>
			</g>
			<g>
				<circle class="st0" cx="441.8" cy="223.7" r="1"/>
			</g>
		</g>
		<g>
			<g>
				<polygon class="st0" points="392.1,243.5 439.6,243.5 439.6,242.9 392.3,242.9 373.3,223.8 285.8,223.8 285.8,224.5 373,224.5 
									"/>
			</g>
			<g>
				<circle class="st0" cx="439.6" cy="243.2" r="1"/>
			</g>
			<g>
				<circle class="st0" cx="285.9" cy="224.1" r="1"/>
			</g>
		</g>
		<g>
			<g>
				<polygon class="st0" points="311.6,212.5 394.7,212.5 404.7,202.5 503.4,202.5 510.2,195.8 509.7,195.3 503.2,201.9 
					404.5,201.9 394.5,211.9 311.6,211.9 				"/>
			</g>
			<g>
				<path class="st0" d="M510.6,196.3c0.4-0.4,0.4-1,0-1.3c-0.4-0.4-1-0.4-1.3,0c-0.4,0.4-0.4,1,0,1.3
					C509.6,196.6,510.2,196.6,510.6,196.3z"/>
			</g>
			<g>
				<path class="st0" d="M311.6,213.2c-0.5,0-1-0.4-1-1c0-0.5,0.4-1,1-1c0.5,0,1,0.4,1,1C312.6,212.7,312.1,213.2,311.6,213.2z"/>
			</g>
		</g>
		<g>
			<g>
				<rect x="552.8" y="204" class="st0" width="67.6" height="0.6"/>
			</g>
			<g>
				<path class="st0" d="M620.4,205.3c0.5,0,1-0.4,1-1c0-0.5-0.4-1-1-1s-1,0.4-1,1C619.4,204.9,619.8,205.3,620.4,205.3z"/>
			</g>
			<g>
				<path class="st0" d="M552.9,205.3c-0.5,0-1-0.4-1-1c0-0.5,0.4-1,1-1c0.5,0,1,0.4,1,1C553.8,204.9,553.4,205.3,552.9,205.3z"/>
			</g>
		</g>
		<g>
			<g>
				<polygon class="st0" points="274.2,200 339.3,200 350.4,188.9 384.8,188.9 384.8,188.2 350.1,188.2 339,199.4 274.4,199.4 
					264.9,189.8 264.4,190.2 				"/>
			</g>
			<g>
				<circle class="st0" cx="384.8" cy="188.6" r="1"/>
			</g>
			<g>
				<path class="st0" d="M264,190.7c-0.4-0.4-0.4-1,0-1.3c0.4-0.4,1-0.4,1.3,0c0.4,0.4,0.4,1,0,1.3C265,191.1,264.4,191.1,264,190.7
					z"/>
			</g>
		</g>
		<g>
			<g>
				<polygon class="st0" points="527.6,268 624.7,268 638,254.7 637.6,254.2 624.4,267.4 527.6,267.4 				"/>
			</g>
			<g>
				<path class="st0" d="M638.5,255.2c0.4-0.4,0.4-1,0-1.3c-0.4-0.4-1-0.4-1.3,0c-0.4,0.4-0.4,1,0,1.3
					C637.5,255.5,638.1,255.5,638.5,255.2z"/>
			</g>
			<g>
				<path class="st0" d="M527.6,268.6c-0.5,0-1-0.4-1-1c0-0.5,0.4-1,1-1c0.5,0,1,0.4,1,1C528.6,268.2,528.1,268.6,527.6,268.6z"/>
			</g>
		</g>
		<g>
			<g>
				<polygon class="st0" points="412.1,321.7 612.9,321.7 704.4,230.3 703.9,229.9 612.7,321.1 412.4,321.1 393.8,302.5 282,302.5 
					263.5,284 241.5,284 241.5,284.6 263.3,284.6 281.8,303.1 393.5,303.1 				"/>
			</g>
			<g>
				<path class="st0" d="M704.8,230.8c0.4-0.4,0.4-1,0-1.3c-0.4-0.4-1-0.4-1.3,0c-0.4,0.4-0.4,1,0,1.3S704.4,231.2,704.8,230.8z"/>
			</g>
			<g>
				<path class="st0" d="M241.5,285.2c-0.5,0-1-0.4-1-1c0-0.5,0.4-1,1-1c0.5,0,1,0.4,1,1C242.5,284.8,242.1,285.2,241.5,285.2z"/>
			</g>
		</g>
		<g>
			<g>
				<polygon class="st0" points="410.2,303.3 514.4,303.3 522.4,295.3 628.1,295.3 628.1,294.7 522.1,294.7 514.1,302.7 
					410.2,302.7 				"/>
			</g>
			<g>
				<path class="st0" d="M628.1,296c0.5,0,1-0.4,1-1c0-0.5-0.4-1-1-1s-1,0.4-1,1C627.1,295.6,627.5,296,628.1,296z"/>
			</g>
			<g>
				<path class="st0" d="M410.3,303.9c-0.5,0-1-0.4-1-1c0-0.5,0.4-1,1-1c0.5,0,1,0.4,1,1C411.2,303.5,410.8,303.9,410.3,303.9z"/>
			</g>
		</g>
		<g>
			<g>
				<polygon class="st0" points="317.2,290.6 495.7,290.6 503,283.4 629.1,283.4 648.4,264 662.1,264 662.1,263.4 648.1,263.4 
					628.8,282.7 502.7,282.7 495.4,290 317.5,290 304.7,277.2 270.3,277.2 254.1,261 214,261 207.4,254.4 206.9,254.8 213.7,261.6 
					253.8,261.6 270,277.8 304.4,277.8 				"/>
			</g>
			<g>
				<path class="st0" d="M662.1,264.7c0.5,0,1-0.4,1-1c0-0.5-0.4-1-1-1c-0.5,0-1,0.4-1,1C661.1,264.2,661.6,264.7,662.1,264.7z"/>
			</g>
			<g>
				<path class="st0" d="M206.5,255.3c-0.4-0.4-0.4-1,0-1.3c0.4-0.4,1-0.4,1.3,0c0.4,0.4,0.4,1,0,1.3
					C207.5,255.7,206.9,255.7,206.5,255.3z"/>
			</g>
		</g>
		<g>
			<g>
				<polygon class="st0" points="276.7,248.3 322.2,248.3 336.6,234 374.9,234 374.9,233.4 336.3,233.4 322,247.7 276.9,247.7 
					267.5,238.2 267,238.6 				"/>
			</g>
			<g>
				<path class="st0" d="M374.8,234.6c0.5,0,1-0.4,1-1c0-0.5-0.4-1-1-1c-0.5,0-1,0.4-1,1C373.9,234.2,374.3,234.6,374.8,234.6z"/>
			</g>
			<g>
				<path class="st0" d="M266.6,239.1c-0.4-0.4-0.4-1,0-1.3c0.4-0.4,1-0.4,1.3,0c0.4,0.4,0.4,1,0,1.3
					C267.6,239.5,267,239.5,266.6,239.1z"/>
			</g>
		</g>
		<g>
			<g>
				<polygon class="st0" points="267.7,263.5 297.5,263.5 308.2,252.8 307.8,252.4 297.2,262.9 267.7,262.9 				"/>
			</g>
			<g>
				<path class="st0" d="M308.6,253.3c0.4-0.4,0.4-1,0-1.3c-0.4-0.4-1-0.4-1.3,0c-0.4,0.4-0.4,1,0,1.3
					C307.7,253.7,308.3,253.7,308.6,253.3z"/>
			</g>
			<g>
				<circle class="st0" cx="267.8" cy="263.2" r="1"/>
			</g>
		</g>
	</g>
</g>
</svg>
