<?xml version="1.0" encoding="utf-8"?>
<!-- Generator: Adobe Illustrator 16.0.0, SVG Export Plug-In . SVG Version: 6.00 Build 0)  -->
<!DOCTYPE svg PUBLIC "-//W3C//DTD SVG 1.1//EN" "http://www.w3.org/Graphics/SVG/1.1/DTD/svg11.dtd">
<svg version="1.1" xmlns="http://www.w3.org/2000/svg" xmlns:xlink="http://www.w3.org/1999/xlink" x="0px" y="0px" width="100px"
	 height="100px" viewBox="0 0 100 100" enable-background="new 0 0 100 100" xml:space="preserve">
<g id="Layer_1">
	<path fill="#FFFFFF" stroke="#000000" stroke-miterlimit="10" d="M81.604,68.555c0,2.987-2.421,5.408-5.406,5.408H25.011
		c-2.986,0-5.406-2.421-5.406-5.408v-9.184c0-2.987,2.42-5.408,5.406-5.408h51.188c2.985,0,5.406,2.421,5.406,5.408V68.555z"/>
	<path fill="#FFFFFF" stroke="#000000" stroke-miterlimit="10" d="M78.604,67.166c0,2.152-2.033,4.797-4.766,4.797H27.493
		c-2.734,0-4.889-2.645-4.889-4.797v-7.027c0-2.154,2.154-3.176,4.889-3.176h46.346c2.732,0,4.766,1.021,4.766,3.176V67.166z"/>
	<path fill="#FFFFFF" stroke="#000000" stroke-miterlimit="10" d="M73.604,81.092c0,2.986-2.527,5.871-5.514,5.871H32.909
		c-2.988,0-5.305-2.885-5.305-5.871V22.908c0-2.987,2.316-4.945,5.305-4.945h35.182c2.986,0,5.514,1.958,5.514,4.945V81.092z"/>
	<path fill="#FFFFFF" stroke="#000000" stroke-miterlimit="10" d="M79.437,84.463c0,1.463-1.551,2.5-3.461,2.5h-51.27
		c-1.91,0-3.459-1.037-3.459-2.5l0,0c0-1.465,1.549-2.5,3.459-2.5h51.27C77.886,81.963,79.437,82.998,79.437,84.463L79.437,84.463z"
		/>
	<path fill="#FFFFFF" stroke="#000000" stroke-miterlimit="10" d="M79.604,55.154c0,2.104-1.705,3.809-3.809,3.809H28.413
		c-2.104,0-3.809-1.705-3.809-3.809v-0.383c0-2.104,1.705-3.809,3.809-3.809h47.383c2.104,0,3.809,1.705,3.809,3.809V55.154z"/>
	<path fill="#FFFFFF" stroke="#000000" stroke-miterlimit="10" d="M68.604,42.555c0,2.987-2.421,5.408-5.406,5.408H38.011
		c-2.985,0-5.406-2.421-5.406-5.408V27.371c0-2.987,2.421-5.408,5.406-5.408h25.188c2.985,0,5.406,2.421,5.406,5.408V42.555z"/>
	<path fill="#FFFFFF" stroke="#000000" stroke-miterlimit="10" d="M63.604,27.769c0,0.956-0.879,2.194-1.836,2.194H39.229
		c-0.955,0-1.625-1.238-1.625-2.194V27.23c0-0.956,0.67-1.267,1.625-1.267h22.539c0.957,0,1.836,0.312,1.836,1.267V27.769z"/>
	<path fill="#FFFFFF" stroke="#000000" stroke-miterlimit="10" d="M63.604,34.769c0,0.956-0.879,2.194-1.836,2.194H39.229
		c-0.955,0-1.625-1.238-1.625-2.194V34.23c0-0.956,0.67-1.268,1.625-1.268h22.539c0.957,0,1.836,0.312,1.836,1.268V34.769z"/>
	<path fill="#FFFFFF" stroke="#000000" stroke-miterlimit="10" d="M63.604,41.769c0,0.956-0.879,2.194-1.836,2.194H39.229
		c-0.955,0-1.625-1.238-1.625-2.194V41.23c0-0.956,0.67-1.267,1.625-1.267h22.539c0.957,0,1.836,0.312,1.836,1.267V41.769z"/>
	<circle fill="#FFFFFF" stroke="#000000" stroke-miterlimit="10" cx="50.449" cy="54.4" r="1.839"/>
	<circle fill="#FFFFFF" stroke="#000000" stroke-miterlimit="10" cx="56.723" cy="54.4" r="1.839"/>
	<circle fill="#FFFFFF" stroke="#000000" stroke-miterlimit="10" cx="63.213" cy="54.4" r="1.839"/>
	<circle fill="#FFFFFF" stroke="#000000" stroke-miterlimit="10" cx="37.471" cy="54.4" r="1.839"/>
	<circle fill="#FFFFFF" stroke="#000000" stroke-miterlimit="10" cx="43.743" cy="54.4" r="1.838"/>
	<path fill="#FFFFFF" stroke="#000000" stroke-miterlimit="10" d="M46.394,73.41c0,2.195,1.779,3.975,3.975,3.975
		s3.975-1.779,3.975-3.975l-4.002-10.465L46.394,73.41z"/>
</g>
<g id="Layer_2">
</g>
</svg>
