<?xml version="1.0" encoding="utf-8"?>
<!-- Generator: Adobe Illustrator 16.0.0, SVG Export Plug-In . SVG Version: 6.00 Build 0)  -->
<!DOCTYPE svg PUBLIC "-//W3C//DTD SVG 1.1//EN" "http://www.w3.org/Graphics/SVG/1.1/DTD/svg11.dtd">
<svg version="1.1" xmlns="http://www.w3.org/2000/svg" xmlns:xlink="http://www.w3.org/1999/xlink" x="0px" y="0px" width="100px"
	 height="100px" viewBox="0 0 100 100" enable-background="new 0 0 100 100" xml:space="preserve">
<g id="Layer_1">
	<rect x="51.604" y="59.963" fill="#FFFFFF" stroke="#000000" stroke-miterlimit="10" width="13" height="22"/>
	<rect x="34.604" y="59.963" fill="#FFFFFF" stroke="#000000" stroke-miterlimit="10" width="14" height="22"/>
	<path fill="#FFFFFF" stroke="#000000" stroke-miterlimit="10" d="M82.604,58.562c0,2.431-1.971,4.401-4.401,4.401H22.006
		c-2.431,0-4.401-1.971-4.401-4.401v-0.197c0-2.431,1.971-4.401,4.401-4.401h56.197c2.431,0,4.401,1.971,4.401,4.401V58.562z"/>
	<path fill="#FFFFFF" stroke="#000000" stroke-miterlimit="10" d="M70.604,82.203c0,0.973-0.498,1.76-0.979,1.76H29.914
		c-0.48,0-1.309-0.787-1.309-1.76v-0.618c0-0.972,0.829-1.622,1.309-1.622h39.712c0.48,0,0.979,0.65,0.979,1.622V82.203z"/>
</g>
<g id="Layer_4">
	<path fill="#FFFFFF" stroke="#000000" stroke-miterlimit="10" d="M40.604,45.463V33.529c0-4.728,4.381-8.566,8.809-8.566h0.517
		c4.428,0,8.674,3.838,8.674,8.566v11.934"/>
	<path fill="#FFFFFF" stroke="#000000" stroke-miterlimit="10" d="M55.942,20.059c0,3.424-2.775,6.2-6.2,6.2
		c-3.425,0-6.201-2.776-6.201-6.2c0-3.425,2.776-6.201,6.201-6.201c2.853,0,5.254,1.925,5.978,4.546
		C55.866,18.932,55.942,19.485,55.942,20.059z"/>
	<path fill="#FFFFFF" stroke="#000000" stroke-miterlimit="10" d="M53.64,30.863l4.962,11.822c0.437,1.042,1.611,1.543,2.624,1.118
		c1.014-0.424,1.479-1.614,1.042-2.656l-4.94-11.923"/>
	<path fill="#FFFFFF" stroke="#000000" stroke-miterlimit="10" d="M45.881,30.863l-4.962,11.822
		c-0.437,1.042-1.611,1.543-2.625,1.118c-1.013-0.424-1.479-1.614-1.042-2.656l4.744-11.923"/>
</g>
<g id="Layer_3">
	<path fill="#FFFFFF" stroke="#000000" stroke-miterlimit="10" d="M72.667,53.963c0-4-3.425-8.774-7.646-8.774l-28.954-0.461
		c0.146,0.525,0.223,1.771,0.223,2.342c0,3.425-2.776,6.893-6.201,6.893H72.667z"/>
	<path fill="#FFFFFF" stroke="#000000" stroke-miterlimit="10" d="M37.324,49.022c0,3.425-2.776,6.2-6.201,6.2
		c-3.424,0-6.201-2.775-6.201-6.2c0-3.424,2.777-6.2,6.201-6.2c2.852,0,5.254,1.925,5.979,4.546
		C37.247,47.896,37.324,48.449,37.324,49.022z"/>
	<path fill="#FFFFFF" stroke="#000000" stroke-miterlimit="10" d="M60.555,49.999c1.131,0,2.047,0.89,2.047,1.988
		c0,1.099-0.916,1.988-2.047,1.988"/>
	<line fill="none" stroke="#000000" stroke-miterlimit="10" x1="60.555" y1="49.999" x2="43.918" y2="49.762"/>
</g>
</svg>
