<?xml version="1.0" encoding="utf-8"?>
<!-- Generator: Adobe Illustrator 16.0.0, SVG Export Plug-In . SVG Version: 6.00 Build 0)  -->
<!DOCTYPE svg PUBLIC "-//W3C//DTD SVG 1.1//EN" "http://www.w3.org/Graphics/SVG/1.1/DTD/svg11.dtd">
<svg version="1.1" xmlns="http://www.w3.org/2000/svg" xmlns:xlink="http://www.w3.org/1999/xlink" x="0px" y="0px" width="100px"
	 height="100px" viewBox="0 0 100 100" enable-background="new 0 0 100 100" xml:space="preserve">
<g id="Layer_1">
	<path fill="#FFFFFF" stroke="#000000" stroke-miterlimit="10" d="M67.604,79.692c0,3.265-1.709,5.271-4.874,5.271H26.515
		c-3.164,0-5.91-2.006-5.91-5.271V32.384c0-3.267,2.746-5.421,5.91-5.421H62.73c3.165,0,4.874,2.154,4.874,5.421V79.692z"/>
	<path fill="#FFFFFF" stroke="#000000" stroke-miterlimit="10" d="M63.604,76.891c0,2.876-1.471,5.072-4.127,5.072H29.087
		c-2.657,0-5.482-2.196-5.482-5.072V35.227c0-2.876,2.825-4.264,5.482-4.264h30.391c2.656,0,4.127,1.388,4.127,4.264V76.891z"/>
	<path fill="#FFFFFF" stroke="#000000" stroke-miterlimit="10" d="M56.604,29.364c0,3.092-2.507,5.599-5.6,5.599H37.204
		c-3.093,0-5.6-2.507-5.6-5.599v-0.802c0-3.092,2.507-5.599,5.6-5.599h13.801c3.093,0,5.6,2.507,5.6,5.599V29.364z"/>
	<circle fill="#FFFFFF" cx="44.393" cy="23.032" r="4.279"/>
	<circle fill="#FFFFFF" stroke="#000000" stroke-miterlimit="10" cx="44.393" cy="23.185" r="3.208"/>
	<path fill="#FFFFFF" d="M54.937,86.848l22.233-0.172l0,0c1.834,0,3.438-1.438,3.438-3.209c0-0.504,0.027-0.981-0.18-1.406
		L69.449,67.498l0.039-13.905c0.707,0,1.292-0.573,1.292-1.28s-0.567-1.28-1.274-1.28l0.098,0.004l-6.741-0.004
		c-0.706,0-1.279,0.573-1.279,1.28s0.574,1.28,1.28,1.28l-0.019,13.905L52.269,81.686c-0.342,0.508-0.541,1.122-0.541,1.781
		C51.728,85.238,53.165,86.848,54.937,86.848"/>
	<path fill="none" stroke="#000000" stroke-miterlimit="10" d="M54.937,86.848l22.233-0.172l0,0c1.834,0,3.438-1.438,3.438-3.209
		c0-0.504,0.027-0.981-0.18-1.406L69.449,67.498l0.039-13.905c0.707,0,1.292-0.573,1.292-1.28s-0.567-1.28-1.274-1.28l0.098,0.004
		l-6.741-0.004c-0.706,0-1.279,0.573-1.279,1.28s0.574,1.28,1.28,1.28l-0.019,13.905L52.269,81.686
		c-0.342,0.508-0.541,1.122-0.541,1.781C51.728,85.238,53.165,86.848,54.937,86.848"/>
	<line fill="none" stroke="#000000" stroke-miterlimit="10" x1="35.104" y1="52.963" x2="58.104" y2="52.963"/>
	<line fill="none" stroke="#000000" stroke-miterlimit="10" x1="35.104" y1="59.963" x2="58.104" y2="59.963"/>
	<line fill="none" stroke="#000000" stroke-miterlimit="10" x1="35.104" y1="66.963" x2="58.104" y2="66.963"/>
	<line fill="none" stroke="#000000" stroke-miterlimit="10" x1="35.104" y1="73.963" x2="58.104" y2="73.963"/>
	<rect x="29.604" y="51.963" fill="#FFFFFF" stroke="#000000" stroke-miterlimit="10" width="3" height="3"/>
	<rect x="29.604" y="57.963" fill="#FFFFFF" stroke="#000000" stroke-miterlimit="10" width="3" height="3"/>
	<rect x="29.604" y="64.963" fill="#FFFFFF" stroke="#000000" stroke-miterlimit="10" width="3" height="3"/>
	<rect x="29.604" y="71.963" fill="#FFFFFF" stroke="#000000" stroke-miterlimit="10" width="3" height="4"/>
	<line fill="none" stroke="#000000" stroke-miterlimit="10" x1="35.104" y1="45.963" x2="58.104" y2="45.963"/>
	<rect x="29.604" y="43.963" fill="#FFFFFF" stroke="#000000" stroke-miterlimit="10" width="3" height="4"/>
	<line fill="none" stroke="#000000" stroke-miterlimit="10" x1="35.104" y1="38.963" x2="58.104" y2="38.963"/>
	<rect x="29.604" y="37.963" fill="#FFFFFF" stroke="#000000" stroke-miterlimit="10" width="3" height="2"/>
</g>
<g id="Layer_2">
</g>
</svg>
