<?xml version="1.0" encoding="utf-8"?>
<!-- Generator: Adobe Illustrator 16.0.0, SVG Export Plug-In . SVG Version: 6.00 Build 0)  -->
<!DOCTYPE svg PUBLIC "-//W3C//DTD SVG 1.1//EN" "http://www.w3.org/Graphics/SVG/1.1/DTD/svg11.dtd">
<svg version="1.1" xmlns="http://www.w3.org/2000/svg" xmlns:xlink="http://www.w3.org/1999/xlink" x="0px" y="0px" width="100px"
	 height="100px" viewBox="0 0 100 100" enable-background="new 0 0 100 100" xml:space="preserve">
<g id="Layer_1">
	<rect x="22.604" y="25.963" fill="#FFFFFF" stroke="#000000" stroke-miterlimit="10" width="56" height="58"/>
	<path fill="#FFFFFF" stroke="#000000" stroke-miterlimit="10" d="M71.604,38.852c0,1.462-1.291,3.111-2.752,3.111H39.147
		c-1.463,0-2.543-1.649-2.543-3.111v-0.705c0-1.462,1.08-2.184,2.543-2.184h29.705c1.461,0,2.752,0.722,2.752,2.184V38.852z"/>
	<path fill="#FFFFFF" stroke="#000000" stroke-miterlimit="10" d="M71.604,51.853c0,1.462-1.291,3.11-2.752,3.11H39.147
		c-1.463,0-2.543-1.648-2.543-3.11v-0.706c0-1.462,1.08-2.184,2.543-2.184h29.705c1.461,0,2.752,0.722,2.752,2.184V51.853z"/>
	<path fill="#FFFFFF" stroke="#000000" stroke-miterlimit="10" d="M42.104,79.963H16.594l0.011-0.531V37.934
		c0-3.512,2.864-5.971,6.119-5.971h14.852c3.256,0,5.029,2.459,5.029,5.971v41.529"/>
	<path fill="#FFFFFF" stroke="#000000" stroke-miterlimit="10" d="M36.604,60.963c0,1.657-1.343,3-3,3h-5c-1.657,0-3-1.343-3-3l0,0
		c0-1.657,1.343-3,3-3h5C35.262,57.963,36.604,59.306,36.604,60.963L36.604,60.963z"/>
	<path fill="#FFFFFF" stroke="#000000" stroke-miterlimit="10" d="M36.604,69.963c0,1.657-1.343,3-3,3h-5c-1.657,0-3-1.343-3-3l0,0
		c0-1.657,1.343-3,3-3h5C35.262,66.963,36.604,68.306,36.604,69.963L36.604,69.963z"/>
	<path fill="#FFFFFF" stroke="#000000" stroke-miterlimit="10" d="M48.604,81.463V67.764c0-3.256,3.044-5.801,6.299-5.801h6.601
		c3.255,0,6.101,2.545,6.101,5.801v13.699"/>
	<path fill="#FFFFFF" stroke="#000000" stroke-miterlimit="10" d="M91.104,86.963h-81.5V86.01c0-3.6,2.724-6.047,6.186-6.047h69.457
		c3.463,0,6.039,3.205,6.039,6.805"/>
	<path fill="#FFFFFF" stroke="#000000" stroke-miterlimit="10" d="M83.782,22.463c0,2.734-2.252,4.5-5.031,4.5H22.45
		c-2.779,0-5.031-1.766-5.031-4.5l0,0c0-2.733,2.252-4.5,5.031-4.5h56.301C81.53,17.963,83.782,19.729,83.782,22.463L83.782,22.463z
		"/>
	<g>
		<path fill-rule="evenodd" clip-rule="evenodd" d="M32.673,47.93c0.732-0.096,1.426-0.481,2.062-1.156
			c0.097-0.097,0.136-0.23,0.116-0.347c0.828-1.003,1.33-2.39,1.33-3.45c0-1.638-0.791-1.812-2.082-2.081h-0.02
			c-0.077-0.154-0.23-0.271-0.424-0.271c-0.289,0-0.501,0.212-0.501,0.482c0.001,0.251,0.212,0.444,0.501,0.444
			c0.097,0,0.212-0.039,0.289-0.097l0,0c1.271,0.27,1.619,0.347,1.619,1.522c0,0.925-0.482,2.177-1.195,3.083
			c-0.135,0-0.25,0.058-0.327,0.153c-0.386,0.386-0.964,0.868-1.677,0.868c-0.693,0-1.291-0.482-1.657-0.868
			c-0.077-0.096-0.212-0.134-0.327-0.153c-0.714-0.906-1.195-2.158-1.195-3.083c0-1.175,0.328-1.253,1.6-1.522l0,0
			c0.098,0.058,0.193,0.097,0.309,0.097c0.27,0,0.5-0.193,0.5-0.444c0-0.27-0.23-0.482-0.5-0.482c-0.193,0-0.367,0.116-0.443,0.271
			l0,0c-1.311,0.27-2.102,0.443-2.102,2.081c0,1.06,0.521,2.447,1.35,3.468c-0.02,0.098,0.02,0.231,0.098,0.328
			c0.635,0.675,1.31,1.061,2.022,1.156l-0.02,2.061c0,1.428-1.233,2.584-2.755,2.584c-1.523,0-2.775-1.156-2.775-2.584V48.18
			c0.887-0.135,1.561-0.848,1.561-1.715c0-0.944-0.848-1.734-1.869-1.734s-1.869,0.79-1.869,1.734c0,0.867,0.675,1.58,1.562,1.715
			v1.811c0,1.754,1.522,3.162,3.392,3.162s3.391-1.406,3.391-3.162V47.93H32.673z"/>
		<path fill-rule="evenodd" clip-rule="evenodd" fill="#FFFFFF" d="M26.159,47.641c0.675,0,1.234-0.52,1.234-1.176
			c0-0.635-0.56-1.155-1.234-1.155c-0.693-0.001-1.233,0.521-1.233,1.155C24.926,47.121,25.466,47.641,26.159,47.641L26.159,47.641z
			"/>
	</g>
	<line fill="none" stroke="#000000" stroke-miterlimit="10" x1="61.604" y1="36.463" x2="61.604" y2="42.463"/>
	<line fill="none" stroke="#000000" stroke-miterlimit="10" x1="51.604" y1="36.463" x2="51.604" y2="42.463"/>
	<line fill="none" stroke="#000000" stroke-miterlimit="10" x1="61.604" y1="49.463" x2="61.604" y2="55.463"/>
	<line fill="none" stroke="#000000" stroke-miterlimit="10" x1="51.604" y1="49.463" x2="51.604" y2="55.463"/>
	<line fill="none" stroke="#000000" stroke-miterlimit="10" x1="58.604" y1="62.463" x2="58.604" y2="79.463"/>
</g>
<g id="Layer_2">
</g>
</svg>
