<?xml version="1.0" encoding="utf-8"?>
<!-- Generator: Adobe Illustrator 16.0.0, SVG Export Plug-In . SVG Version: 6.00 Build 0)  -->
<!DOCTYPE svg PUBLIC "-//W3C//DTD SVG 1.1//EN" "http://www.w3.org/Graphics/SVG/1.1/DTD/svg11.dtd">
<svg version="1.1" xmlns="http://www.w3.org/2000/svg" xmlns:xlink="http://www.w3.org/1999/xlink" x="0px" y="0px" width="100px"
	 height="100px" viewBox="0 0 100 100" enable-background="new 0 0 100 100" xml:space="preserve">
<g id="Layer_1">
	<rect x="54.604" y="71.963" fill="#FFFFFF" stroke="#000000" stroke-miterlimit="10" width="12" height="13"/>
	<rect x="38.604" y="71.963" fill="#FFFFFF" stroke="#000000" stroke-miterlimit="10" width="13" height="13"/>
	<rect x="21.604" y="71.963" fill="#FFFFFF" stroke="#000000" stroke-miterlimit="10" width="12" height="13"/>
	<circle fill="#FFFFFF" stroke="#000000" stroke-miterlimit="10" cx="35.981" cy="46.488" r="28.473"/>
	<circle fill="#FFFFFF" stroke="#000000" stroke-miterlimit="10" cx="35.481" cy="46.988" r="22.178"/>
	<path fill="#FFFFFF" stroke="#000000" stroke-miterlimit="10" d="M85.034,66.463c0,4.125-2.012,7.5-4.496,7.5H42.375
		c-2.482,0-4.496-3.375-4.496-7.5l0,0c0-4.125,2.014-7.5,4.496-7.5h38.164C83.022,58.963,85.034,62.338,85.034,66.463L85.034,66.463
		z"/>
	<path fill="#FFFFFF" stroke="#000000" stroke-miterlimit="10" d="M93.604,62.708c0,2.35-1.904,4.255-4.255,4.255h-54.49
		c-2.35,0-4.255-1.905-4.255-4.255v-0.49c0-2.35,1.905-4.255,4.255-4.255h54.49c2.351,0,4.255,1.905,4.255,4.255V62.708z"/>
	<path fill="#FFFFFF" stroke="#000000" stroke-miterlimit="10" d="M90.604,85.262c0,0.939-0.762,1.701-1.701,1.701H11.306
		c-0.939,0-1.701-0.762-1.701-1.701v-0.598c0-0.939,0.762-1.701,1.701-1.701h77.598c0.939,0,1.701,0.762,1.701,1.701V85.262z"/>
	<path fill="#FFFFFF" stroke="#000000" stroke-miterlimit="10" d="M49.667,51.186c0,3.311-2.684,5.994-5.994,5.994
		s-5.995-2.684-5.995-5.994s2.685-5.994,5.995-5.994c2.757,0,5.079,1.861,5.779,4.395C49.593,50.096,49.667,50.631,49.667,51.186z"
		/>
	<path fill="#FFFFFF" stroke="#000000" stroke-miterlimit="10" d="M84.835,57.963c0-4-3.311-8.483-7.393-8.483l-27.99-0.446
		c0.141,0.508,0.215,1.713,0.215,2.266c0,3.311-2.684,6.664-5.994,6.664H84.835z"/>
	<path fill="#FFFFFF" stroke="#000000" stroke-miterlimit="10" d="M71.556,53.998c1.131,0,2.047,0.891,2.047,1.988
		c0,1.099-0.916,1.988-2.047,1.988"/>
	<line fill="none" stroke="#000000" stroke-miterlimit="10" x1="71.556" y1="53.998" x2="54.919" y2="53.762"/>
</g>
<g id="Layer_2">
</g>
</svg>
