<?xml version="1.0" encoding="utf-8"?>
<!-- Generator: Adobe Illustrator 16.0.0, SVG Export Plug-In . SVG Version: 6.00 Build 0)  -->
<!DOCTYPE svg PUBLIC "-//W3C//DTD SVG 1.1//EN" "http://www.w3.org/Graphics/SVG/1.1/DTD/svg11.dtd">
<svg version="1.1" xmlns="http://www.w3.org/2000/svg" xmlns:xlink="http://www.w3.org/1999/xlink" x="0px" y="0px" width="797px"
	 height="771px" viewBox="0 0 797 771" enable-background="new 0 0 797 771" xml:space="preserve">
<g id="Layer_2">
	<path fill="#CFEEFF" stroke="#008D93" stroke-width="10" stroke-miterlimit="10" d="M490,538.072
		c0,15.423-9.202,29.928-23.562,29.928h-225.68C226.398,568,211,553.495,211,538.072V116.939C211,101.516,226.398,92,240.759,92
		h225.68C480.798,92,490,101.516,490,116.939V538.072z"/>
	<path fill="#008D93" d="M419,99.11c0,4.91-3.98,8.89-8.89,8.89H279.89c-4.909,0-8.89-3.98-8.89-8.89V98.89
		c0-4.91,3.98-8.89,8.89-8.89H410.11c4.909,0,8.89,3.98,8.89,8.89V99.11z"/>
</g>
<g id="Layer_2_copy">
	<g>
		<defs>
			<path id="SVGID_1_" d="M492,538.072C492,553.495,480.798,567,466.438,567h-225.68C226.398,567,214,553.495,214,538.072V116.939
				C214,101.516,226.398,90,240.759,90h225.68C480.798,90,492,101.516,492,116.939V538.072z"/>
		</defs>
		<clipPath id="SVGID_2_">
			<use xlink:href="#SVGID_1_"  overflow="visible"/>
		</clipPath>
		<g clip-path="url(#SVGID_2_)">
			<path fill="#2A3559" d="M394.15,563.039c0.048-8.944,0.123-15.455,0.237-18.677c0.927-26.253-3.29-130.307-3.29-130.307
				l-74.861,4.67l19.052,100.278c0,0,0.607,19.736,1.818,45.128"/>
			<path fill="#2A3559" d="M267.908,564.039c-0.15-9.535-0.426-16.919-0.543-20.26c-0.924-26.253,3.293-130.306,3.293-130.306
				l74.858,4.669l-2.066,117.234l-7.195-3.936c-0.651,5.811-2.407,18.302-4.209,32.69"/>
			<path fill="none" stroke="#2A3559" stroke-width="2.3686" stroke-miterlimit="10" d="M298.973,243.18
				c1.03-18.386,36.771-18.388,51.666-12.893c14.894,5.495,13.002,20.23,13.002,20.23"/>
			<path fill="#FFAA96" d="M430.943,333.739c0,0,1.021,12.267-5.112,19.167c-6.133,6.9-12.775,20.445-12.775,20.445
				s-9.458-19.934-13.803-26.324c-4.342-6.388-16.864-20.698-17.12-33.988c-0.255-13.288,21.465-33.222,21.465-33.222
				s12.012,21.467,13.033,33.733C417.654,325.817,430.943,333.739,430.943,333.739z"/>
			<path fill="#F9D3AE" d="M305.784,187.831c0,0,8.605,38.535,2.534,46.235c-3.494,4.431-17.344,17.067-17.344,17.067
				s13.915,30.264,27.926,31.033c65.575,3.604,46.643-33.859,46.643-33.859s-13.711-8.593-15.964-14.695
				c-2.293-6.217-5.708-29.398-5.708-29.398L305.784,187.831z"/>
			<path fill="#2A3559" d="M399.557,448.94c-3.435-8.326-7.282-15.634-7.282-15.634l-118.467-0.35c0,0-0.646,5.876-1.559,15.983
				H399.557z"/>
			<path fill="#48B9B2" d="M397.234,495.896c1.168-0.946,1.781-48.5,1.781-48.5s-7.82-137.04-9.974-152.792
				c-2.152-15.752-7.536-47.259-7.536-47.259l-23.595-7.259c0,0,10.102,19.882-17.446,23.475
				c-39.194,5.111-46.85-22.021-46.85-22.021l-26.459,18.174l2.858,236.182H397.234z"/>
			<path fill="#FFAA96" d="M440.653,325.307c-2.044,6.133-2.044,12.522-2.044,20.956c0,8.433,0.767,22.999-4.089,26.576
				s-11.755,10.478-17.634,4.856c-5.878-5.623-8.944-14.567-9.71-23c-0.767-8.433,8.688-20.7,13.032-28.11L440.653,325.307z"/>
			<path fill="#FFFFFF" d="M381.506,247.346c12.406,5.735,14.652,10.227,21.839,26.396c7.187,16.17,16.864,52.844,16.864,52.844
				s-1.593,58.545,2.899,72.018c-5.528-4.247-26.95-24.252-35.933-41.32C374.207,332.639,381.506,247.346,381.506,247.346z"/>
			<path fill="#FFFFFF" d="M423.108,398.603c7.188,6.291,21.559,4.493,24.252-8.98c2.697-13.476,4.438-70.743,4.438-70.743
				l-35.422-8.138c0,0-8.698,22.14-9.199,43.954C406.63,378.456,423.108,398.603,423.108,398.603z"/>
			<path fill="#FFFFFF" d="M356.179,564.132h52.284c0,0-3.58-93.901-4.35-115.191c-0.176-6.675-0.422-13.767-0.769-21.291
				c-4.79-104.202-21.839-180.304-21.839-180.304l-19.482-5.494l3.594,53.449c0,0-4.53,89.463-8.982,123.964
				c-0.464,3.594-0.15,82.43-0.387,129.817C356.016,596.47,356.179,564.132,356.179,564.132z"/>
			
				<path fill="none" stroke="#AEE7FA" stroke-width="1.8425" stroke-linecap="round" stroke-linejoin="round" stroke-miterlimit="10" d="
				M403.75,437.448c0,0-4.885-102.653-11.709-140.924"/>
			<path fill="#89DBD3" d="M354.837,236.462c0,0,6.588,101.357,5.391,133.696c-1.199,32.339-3.593,49.106-3.593,49.106
				l21.559-94.619l-8.839-22.338l8.839-13.594l-16.17-46.861L354.837,236.462z"/>
			<path fill="#2A3559" d="M419.461,311.579c-6.513,13.871,0.633,34.493,15.028,33.057c14.396-1.438,17.117-17.568,14.473-32.117
				C446.32,297.968,427.559,294.333,419.461,311.579z"/>
			<g>
				<path id="XMLID_2_" fill="#3DB0D0" d="M367.362,337.714l31.275,11.769c3.219,1.191,8.273-0.434,11.3-3.62l66.277-70.45
					c3-3.157,2.869-6.689-0.306-7.893l-30.9-11.891c-6.168-0.929-9.915,0.133-13.001,3.374l-66.12,69.897
					C362.776,332.168,362.376,334.547,367.362,337.714z"/>
				<path id="XMLID_1_" fill="#2A3559" d="M369.058,338.536l31.418,11.844c3.239,1.201,8.313-0.426,11.353-3.622l66.553-70.764
					c3.009-3.167,2.869-6.713-0.33-7.921l-31.071-11.93c-3.352-1.267-8.597,0.345-11.703,3.61l-66.7,70.541
					C365.442,333.586,365.666,337.28,369.058,338.536z"/>
			</g>
			<path fill="#F9D3AE" d="M433.39,331.456c4.083-1.119,9.525-1.566,10.885-4.251c1.361-2.686,3.4-3.358,5.669-5.372
				c2.268-2.015,0.906-4.03,3.629-6.491c2.72-2.461,0-6.714,0.226-8.952c0.228-2.238,0.455-6.715-0.452-10.743
				c-0.908-4.028-4.536-4.924-9.298-6.49s-8.165-1.566-8.165,0.895c0,2.462,4.989,5.82,4.989,5.82s-8.162-2.686-10.431-3.581
				c-2.267-0.895-5.896,1.119-4.307,4.028c1.586,2.909,8.162,6.714,10.202,7.833c2.042,1.119,3.176,3.357,3.176,3.357
				s-6.123,0-10.431-1.79c-4.31-1.791-8.161-5.819-11.111-4.029c-2.948,1.79-1.359,4.029,1.587,6.491c0,0,6.349,4.252,8.391,5.146
				c0,0-6.35,0.225-9.523-1.117c-3.175-1.345-4.762,0.223-3.855,2.685c0.907,2.461,9.75,4.476,9.977,5.371
				c0.227,0.895-1.586,3.133-2.72,5.819C420.693,328.771,433.39,331.456,433.39,331.456z"/>
			
				<path fill="none" stroke="#AEE7FA" stroke-width="1.8425" stroke-linecap="round" stroke-linejoin="round" stroke-miterlimit="10" d="
				M419.927,334.795c0,0-5.287,14.304-5.609,24.656c-0.324,10.35,2.72,20.371,2.72,20.371"/>
			
				<path fill="none" stroke="#AEE7FA" stroke-width="1.8425" stroke-linecap="round" stroke-linejoin="round" stroke-miterlimit="10" d="
				M399.557,374.995c0,0,20.413,24.262,28.069,26.21c11.941,3.04,16.384-4.26,16.384-4.26"/>
			<rect x="372.204" y="471.445" fill="#E3E3E3" width="25.826" height="6.313"/>
			
				<path fill="none" stroke="#AEE7FA" stroke-width="1.8425" stroke-linecap="round" stroke-linejoin="round" stroke-miterlimit="10" d="
				M272.249,322.385c0,0-24.024,38.347-37.479,50.967"/>
			
				<path fill="none" stroke="#AEE7FA" stroke-width="1.8425" stroke-linecap="round" stroke-linejoin="round" stroke-miterlimit="10" d="
				M223.82,326.735c0,0,9.922-20.828,9.922-21.464"/>
		</g>
	</g>
	<path fill="#2A3559" d="M169.322,265.877c-2.859-2.415,5.534-7.743,12.845-10.168c8.201-2.72,13.14,0.479,13.14,0.479
		C193.633,260.295,173.934,269.771,169.322,265.877z"/>
	<g>
		<path fill="#F9D3AE" d="M168.729,237.065c-0.367,7.529,5.406,8.505,7.55,16.493c1.483,5.527,3.671,15.205,4.879,20.646
			c4.673-5.599,9.46-11.003,14.585-16.089c-2.172-5.893-3.582-10.805-3.896-12.969c-0.573-3.938,1.758-19.128,1.712-23.498
			s-5.765-17.932-7.021-21.841s-6.523-20.471-7.416-21.409c-2.146-2.258-4.037,0.556-3.447,4.374
			c0.621,4.024,2.643,10.084,2.756,12.812c0.115,2.727,3.588,17.519,3.588,17.519s-2.875-1.526-8.256,1.519
			c-3.452,1.953-7.292,3.158-7.925,6.479C164.606,227.571,169.097,229.537,168.729,237.065z"/>
		<path fill="#DE8875" d="M185.79,212.478c-1.982-1.419-3.744-3.121-5.076-5.098c0.705,3.174,1.304,5.721,1.304,5.721
			s-2.875-1.526-8.256,1.519c-3.452,1.953-7.292,3.158-7.925,6.479c-1.23,6.472,3.26,8.438,2.892,15.966
			c-0.109,2.21,0.321,3.849,1.024,5.272c0.334,0.132,0.669,0.257,0.989,0.354c2.916,0.891,5.133,1.032,6.939-0.979
			c3.553-3.959,1.995-12.154,3.33-17.107C181.893,221.334,185.344,216.17,185.79,212.478z"/>
		<g>
			<path fill="#F9D3AE" d="M163.487,213.664c-1.386,3.084-6.295,16.267-4.999,17.853c1.295,1.585,4.187-1.132,4.187-1.132
				s-0.106,3.966,1.563,4.716c1.671,0.75,3.949-3.581,3.949-3.581s0.325,4.495,2.496,4.131c2.17-0.364,3.083-4.637,3.93-7.269
				c0.847-2.631,4.565-11.666,4.565-11.666l-1.459-5.542c-1.674-0.159-3.467-0.298-4.936-0.338
				C168.817,210.728,164.871,210.579,163.487,213.664z"/>
			<path fill="#F9D3AE" d="M180.967,237.014c-1.68,3.291-6.122-7.536-4.639-11.233c1.482-3.697,0.518-8.388-0.566-10.652
				c-1.087-2.264-3.482-5.924-5.164-8.295c-1.685-2.37-1.715-6.261-0.777-9.072c0.938-2.81,3.825,0.525,7.732,4.924
				c3.906,4.397,8.292,9.053,9.93,11.887c1.637,2.834,1.963,7.505,1.963,7.505S182.31,234.384,180.967,237.014z"/>
		</g>
	</g>
	<path fill="#FFFFFF" stroke="#AEE7FA" stroke-miterlimit="10" d="M317.712,564.132c0.72-44.072,1.25-91.295,2.431-103.907
		c0.898-11.03,0.892-31.578,1.57-36.993c2.394-19.163,0.192-76.197-1.57-98.213c-2.396-29.943-27.083-83.104-27.083-83.104
		s-29.616,13.501-36.694,21.421c-9.361,10.475-33.104,63.774-33.104,63.774l-28.583-70.549c0,0-14.416,9.648-26.488,7.79
		c0,0,10.463,37.958,20.006,68.681c7.346,23.65,16.051,44.129,32.237,47.589c10.055,2.15,30.753-24.564,40.464-41.219
		c-0.611,13.606-3.173,125.179-3.336,139.785l-4.034,84.944"/>
	
		<path fill="none" stroke="#AEE7FA" stroke-width="1.8425" stroke-linecap="round" stroke-linejoin="round" stroke-miterlimit="10" d="
		M195.236,256.188c0.07,0,28.83,70.298,33.744,86.181"/>
	<rect x="270.84" y="471.445" fill="#E3E3E3" width="25.827" height="6.313"/>
	<path fill="#89DBD3" d="M303.049,236.15c0,0,14.821,33.612,19.611,80.322c4.793,46.712-0.389,106.386-0.389,106.386L299.58,311.471
		l9.146-13.175l-13.952-8.433l-1.158-48.322L303.049,236.15z"/>
</g>
<g id="Layer_4">
	<g>
		<g>
			<path fill="#2A3559" d="M299.426,240.779l0.198,2.095l-0.099-1.048l0.102,1.048c-0.098,0.009-12.883,0.615-18.422,8.542
				c-6.024,8.623-15.553,33.234-13.081,38.308c2.734,5.611,14.621,10.727,14.74,10.777l-0.825,1.937
				c-0.519-0.221-12.731-5.482-15.806-11.792c-3.234-6.636,7.808-32.653,13.245-40.435
				C285.588,241.468,298.988,240.82,299.426,240.779z"/>
		</g>
		<g>
			
				<path fill="#2A3559" stroke="#2A3559" stroke-width="0.5539" stroke-linecap="round" stroke-linejoin="round" stroke-miterlimit="10" d="
				M273.119,267.58c2.574-6.441,5.622-12.639,8.086-16.164c5.539-7.927,18.324-8.533,18.422-8.542l-0.102-1.048l-0.1-1.047
				c-0.438,0.042-13.838,0.689-19.947,9.432c-2.295,3.285-5.585,9.82-8.383,16.772C271.772,267.179,272.445,267.377,273.119,267.58z
				"/>
		</g>
		<path fill="#2A3559" d="M281.883,298.624l3.069-0.042c1.708-0.024,3.034,1.48,2.798,3.171l0,0
			c-0.238,1.692-1.928,2.773-3.563,2.281l-2.939-0.886c-0.235-0.071-0.386-0.305-0.351-0.549l0.497-3.544
			C281.43,298.811,281.636,298.627,281.883,298.624z"/>
		<g>
			<path fill="#2A3559" d="M301.434,241.062l-0.768,1.958l0.384-0.979l-0.384,0.979c0.089,0.036,12.216,4.137,15.358,13.284
				c3.417,9.948,5.802,36.23,2.03,40.428c-4.174,4.642-17.01,6.287-17.139,6.303l0.261,2.088c0.559-0.069,13.749-1.765,18.441-6.985
				c4.936-5.49,1.48-33.542-1.604-42.519C314.549,245.533,301.844,241.221,301.434,241.062z"/>
		</g>
		<g>
			
				<path fill="#2A3559" stroke="#2A3559" stroke-width="0.5539" stroke-linecap="round" stroke-linejoin="round" stroke-miterlimit="10" d="
				M319.347,274.068c-0.7-6.901-1.925-13.698-3.322-17.765c-3.143-9.146-15.27-13.248-15.358-13.284l0.384-0.979l0.384-0.979
				c0.41,0.159,13.115,4.471,16.581,14.558c1.301,3.79,2.667,10.978,3.441,18.432C320.753,274.053,320.05,274.059,319.347,274.068z"
				/>
		</g>
		<path fill="#2A3559" d="M303.425,301.647l-2.852-0.86c-1.198-0.361-2.642,0.259-3.207,1.377l0,0
			c-0.941,1.871,0.437,4.077,2.532,4.048l2.892-0.04c0.247-0.003,0.456-0.186,0.489-0.431l0.497-3.545
			C303.812,301.951,303.662,301.719,303.425,301.647z"/>
		<path fill="#2A3559" d="M297.683,243.473l2.688-0.007c0.072,0,0.146,0.01,0.215,0.031l2.582,0.746
			c0.37,0.106,0.762-0.075,0.918-0.427l0.406-0.916c0.117-0.264,0.077-0.57-0.104-0.795l-0.117-0.146
			c-0.609-0.757-0.965-1.688-1.014-2.658l-0.151-3.016c-0.02-0.388-0.326-0.701-0.715-0.729l-0.741-0.054
			c-0.033-0.002-0.066-0.007-0.101-0.014l-0.728-0.152c-0.381-0.08-0.76,0.137-0.887,0.504l-0.977,2.857
			c-0.315,0.92-0.913,1.717-1.707,2.277l-0.152,0.108c-0.236,0.166-0.358,0.45-0.318,0.735l0.139,0.993
			C296.972,243.19,297.298,243.473,297.683,243.473z"/>
	</g>
	<path fill="none" stroke="#2A3559" stroke-width="2.3686" stroke-miterlimit="10" d="M361.023,238.621
		c10.473,26.13-5.469,62.206-5.469,62.206"/>
	<circle fill="#FFFFFF" stroke="#2A3559" stroke-width="2.2804" stroke-miterlimit="10" cx="353.573" cy="305.836" r="7.372"/>
</g>
<g id="Layer_5">
	<g>
		<g>
			<path fill="#FAD4AF" d="M356.336,186.256c0.918-2.571,4.663-4.967,6.231-4.052c1.569,0.916,2.44,5.404,1.786,8.236
				c-0.655,2.832-3.265,7.928-4.182,8.93c-0.915,1.001-4.313,3.05-6.404,2.484L356.336,186.256z"/>
			<path fill="#F09E78" d="M357.254,184.684c-0.398,0.498-0.724,1.03-0.918,1.573l-2.568,15.597
				c1.348,0.366,3.239-0.358,4.661-1.188L357.254,184.684z"/>
			<path fill="#FAD4AF" d="M301.374,186.256c-0.915-2.571-4.662-4.967-6.229-4.052c-1.57,0.916-2.44,5.404-1.786,8.236
				c0.652,2.832,3.266,7.928,4.181,8.93c0.915,1.001,4.314,3.05,6.404,2.484L301.374,186.256z"/>
			<path fill="#F09E78" d="M300.459,184.684c0.398,0.498,0.721,1.03,0.915,1.573l2.569,15.597c-1.351,0.366-3.241-0.358-4.658-1.188
				L300.459,184.684z"/>
		</g>
		<path fill="#F09E78" d="M340.038,227.992c2.097-2.324,4.505-4.775,6.835-8.167c0.417-9.116,1.872-26.076,1.872-26.076h-39.78
			c0,0,1.457,16.956,1.873,26.075c2.332,3.391,4.738,5.843,6.834,8.167c4.859,5.39,8.251,7.107,11.184,7.107
			C331.792,235.099,335.181,233.381,340.038,227.992z"/>
		<linearGradient id="SVGID_3_" gradientUnits="userSpaceOnUse" x1="328.8574" y1="186.9277" x2="328.8574" y2="135.4787">
			<stop  offset="0" style="stop-color:#FAD4AF"/>
			<stop  offset="1" style="stop-color:#F09E78"/>
		</linearGradient>
		<path fill="url(#SVGID_3_)" d="M328.854,137.198c-26.439,0-30.518,17.951-30.518,28.234c0,10.281,0.916,20.042,4.581,33.984
			c3.371,12.816,9.896,17.425,14.755,21.522c4.859,4.096,8.251,5.401,11.184,5.401c2.937,0,6.325-1.306,11.183-5.401
			c4.856-4.098,11.386-8.707,14.757-21.522c3.664-13.942,4.585-23.703,4.585-33.984C359.38,155.149,355.299,137.198,328.854,137.198
			z"/>
		<path fill="#E6C8BA" d="M328.854,137.198c-26.439,0-30.518,17.951-30.518,28.234c0,0.913,0.009,1.819,0.025,2.727l6.232-5.606
			l6.878-3.658c2.59-4.049,8.977-10.783,10.412-10.39c1.438,0.391,10.062,13.132,16.206,18.193
			c6.145,5.059,16.516,6.901,16.516,6.901l4.725-4.272c0.034-1.295,0.05-2.592,0.05-3.896
			C359.38,155.149,355.299,137.198,328.854,137.198z"/>
		<g>
			<linearGradient id="SVGID_4_" gradientUnits="userSpaceOnUse" x1="328.8555" y1="137.8213" x2="328.8555" y2="179.0917">
				<stop  offset="0" style="stop-color:#1C242B"/>
				<stop  offset="1" style="stop-color:#343D45"/>
			</linearGradient>
			<path fill="url(#SVGID_4_)" d="M362.121,147.851h-66.532l-0.652,18.364l1.959,15.914l3.022,2.807c0,0,5.605-13.493,5.605-15.191
				c0-1.7-0.719-10-0.719-10l6.667-0.851l1.133-2.287c0,0,16.228-3.268,33.634,2.287l6.666,0.851c0,0-0.719,8.3-0.719,10
				c0,1.698,5.612,15.191,5.612,15.191l3.017-2.807l1.96-15.914L362.121,147.851z"/>
			<path fill="#171B1F" d="M338.681,147.851h-26.08v8.769l0.004-0.012c0,0,11.805-2.371,26.076,0.374V147.851z"/>
			<path fill="#171B1F" d="M352.186,169.745c0,0.119,0.03,0.306,0.086,0.539c1.285-0.069,4.022-0.294,5.23-0.998l-5.181-2.153
				C352.243,168.295,352.186,169.274,352.186,169.745z"/>
			<linearGradient id="SVGID_5_" gradientUnits="userSpaceOnUse" x1="326.6758" y1="137.8213" x2="326.6758" y2="179.0909">
				<stop  offset="0" style="stop-color:#1C242B"/>
				<stop  offset="1" style="stop-color:#343D45"/>
			</linearGradient>
			<path fill="url(#SVGID_5_)" d="M295.493,170.737c-1.122-4.979-5.304-19.686-5.304-19.686c4.114-5.292,8.691-8.232,15.163-9.605
				c2.612-4.707,7.582-10.196,16.599-13.333c10.717,0.915,39.952,15.488,40.823,16.731c0.871,1.241,0,21.37,0,21.37l-5.272,3.071
				c0,0-10.521-0.522-17.252-4.77c-6.731-4.247-16.929-15.62-18.366-16.011c-1.436-0.394-7.822,6.34-10.412,10.39l-6.839,0.785
				L295.493,170.737z"/>
			<path opacity="0.1" fill="#FFFFFF" d="M337.688,154.101c0,0,10.862,4.338,25.407,2.235c0.05-2.343,0.081-4.737,0.059-6.735
				C357.696,151.361,347.125,154.289,337.688,154.101z"/>
			<path fill="#171B1F" d="M310.556,156.503c0,0,2.192-8.065,5.574-10.854C316.13,145.649,313.027,152.311,310.556,156.503z"/>
			<path fill="#171B1F" d="M309.488,151.758c0,0,0.889-5.575,2.728-9.429C312.216,142.329,311.06,148.614,309.488,151.758z"/>
			<path fill="#171B1F" d="M308.005,146.065c0,0,0.387-3.351,1.483-5.812C309.488,140.253,309.162,143.366,308.005,146.065z"/>
		</g>
	</g>
</g>
<g id="Layer_6">
	<path fill="#97CBE3" d="M624,552.425c0,11.916-9.66,21.575-21.576,21.575h-65.848C524.66,574,515,564.341,515,552.425v-65.85
		c0-11.916,9.66-21.575,21.576-21.575h65.848C614.34,465,624,474.659,624,486.575V552.425z"/>
	<path fill="#CCF0EE" d="M624,447H515V338.603l0.315-0.022c59.76,0,108.335,48.274,108.335,108.035"/>
	<circle fill="#CDD7F0" cx="691.458" cy="521.034" r="52.288"/>
	<path fill="#48B9B2" d="M491,678.571c0,11.834-9.595,21.429-21.429,21.429h-65.143C392.595,700,383,690.405,383,678.571v-65.143
		c0-11.834,9.595-21.429,21.429-21.429h65.143c11.834,0,21.429,9.595,21.429,21.429V678.571z"/>
	<path fill="#FFDCE0" d="M366,592v108H257.879l-0.021-0.221c0-59.354,48.176-107.516,107.528-107.516"/>
	<path fill="#FEE773" d="M183,510.425c0,11.916-9.66,21.575-21.576,21.575H95.576C83.66,532,74,522.341,74,510.425v-65.85
		C74,432.659,83.66,423,95.576,423h65.848C173.34,423,183,432.659,183,444.575V510.425z"/>
</g>
</svg>
