<?xml version="1.0" encoding="utf-8"?>
<!-- Generator: Adobe Illustrator 16.0.0, SVG Export Plug-In . SVG Version: 6.00 Build 0)  -->
<!DOCTYPE svg PUBLIC "-//W3C//DTD SVG 1.1//EN" "http://www.w3.org/Graphics/SVG/1.1/DTD/svg11.dtd">
<svg version="1.1" xmlns="http://www.w3.org/2000/svg" xmlns:xlink="http://www.w3.org/1999/xlink" x="0px" y="0px"
	 width="635.968px" height="559.472px" viewBox="0 0 635.968 559.472" enable-background="new 0 0 635.968 559.472"
	 xml:space="preserve">
<g id="Layer_3">
</g>
<g id="Layer_5">
	<path fill="#A394D9" d="M166.014,159.503c0,13.807-11.193,25-25,25h-76c-13.807,0-25-11.193-25-25v-76c0-13.807,11.193-25,25-25h76
		c13.807,0,25,11.193,25,25V159.503z"/>
	<path fill="#97CBE3" d="M475.014,470.503c0,13.807-11.193,25-25,25h-76c-13.807,0-25-11.193-25-25v-76c0-13.807,11.193-25,25-25h76
		c13.807,0,25,11.193,25,25V470.503z"/>
	<path fill="#CCF0EE" d="M475.014,348.503h-126V222.238l0.357-0.025c69.246,0,125.385,56.268,125.385,125.514"/>
	<path fill="#FFF3D9" d="M185.014,184.503v-126h125.961l0.025,0.22c0,69.246-56.115,125.454-125.361,125.454"/>
	<circle fill="#CDD7F0" cx="553.466" cy="433.626" r="60.587"/>
	<g>
		<defs>
			<path id="SVGID_1_" d="M329.014,438.73c0,31.907-25.865,57.773-57.772,57.773H95.787c-31.907,0-57.772-25.866-57.772-57.773
				V263.277c0-31.907,25.866-57.773,57.772-57.773h175.455c31.907,0,57.772,25.866,57.772,57.773V438.73z"/>
		</defs>
		<use xlink:href="#SVGID_1_"  overflow="visible" fill="#FFB7BB"/>
		<clipPath id="SVGID_2_">
			<use xlink:href="#SVGID_1_"  overflow="visible"/>
		</clipPath>
		<g clip-path="url(#SVGID_2_)">
			<linearGradient id="SVGID_3_" gradientUnits="userSpaceOnUse" x1="192.7495" y1="395.4341" x2="192.7495" y2="348.2867">
				<stop  offset="0" style="stop-color:#A35C4D"/>
				<stop  offset="1" style="stop-color:#6E2D28"/>
			</linearGradient>
			<path fill="url(#SVGID_3_)" d="M244.878,297.443v11.158c3.548,18.415,5.321,30.821-1.437,38.242
				c-6.76,7.422-16.393,12.628-14.183,19.165c-5.536-1.995-6.751-7.976-6.751-7.976c-3.771,5.98-16.425,14.953-29.758,14.953
				c-13.336,0-25.99-8.973-29.757-14.953c0,0-1.218,5.98-6.756,7.976c2.215-6.537-7.423-11.743-14.181-19.165
				c-6.756-7.421-4.986-19.827-1.438-38.242v-11.158H244.878z"/>
			<g>
				<g>
					<path fill="#FCBDA5" d="M244.354,428.678l0.86-33.187l-21.864-11.767c0,0-5.165-2.195-6.883-4.004
						c-8.416-8.866-8.479-45.146-8.479-45.146l-31.028-0.865c0,0-0.103,34.034-10.246,45.793
						c-2.426,2.813-14.35,10.629-14.622,9.494l-11.809,15.836l3.011,24.913C176.948,427.701,210.639,427.728,244.354,428.678z"/>
				</g>
			</g>
			<g>
				<polygon fill="#48B9B2" points="230.537,400.438 224.226,383.352 185.614,400.749 161.915,383.352 154.592,414.17 
					137.924,628.978 223.435,632.794 				"/>
				<g>
					<path fill="#2A3559" d="M245.796,592.639c-41.737,7.168-84.066,10.429-126.734,9.808c-2.356,10.244-5.267,21.33-8.823,33.573
						c-19.811,68.178,7.133,214.603,7.133,214.603c20.444,7.342,42.327,12.56,75.913,10.463c3.366-0.209,6.854-0.488,10.481-0.862
						c17.923-1.794,30.385-2.259,52.877-10.345c0,0,19.356-111.361,5.111-192.493C257.342,632.244,250.625,612.248,245.796,592.639z
						"/>
					<path fill="#FFFFFF" d="M169.319,781.486c0,0,0.634-227.419-1.416-303.188c-1.347-49.888-5.521-96.945-5.521-96.945
						l-17.639,2.19l-19.547,7.745c-2.471,7.479-16.534,79.792-14.511,93.564c1.415,9.691,15.287,88.513-3.155,151.168
						c-11.51,39.104-15.086,94.906-9.58,139.735C118.302,776.986,149.074,782.293,169.319,781.486z"/>
					<path fill="#FFFFFF" d="M275.565,771.104c2.625-33.879,8.158-76.938-3.342-113.719
						c-18.684-59.767-19.771-174.328-16.355-186.023c4.429-15.147,7.938-26.47,7.938-26.47s-3.674-42.826-6.123-50.305
						l-39.038-15.313l-28.088,58.84l-10.844,47.489l7.198,294.961C213.098,778.824,249.637,775.567,275.565,771.104z"/>
					<g>
						<path fill="#AEE7FA" d="M211.757,620.761c0,0,29.076,33.76,47.646,26.771l1.149-6.989c0,0-12.825-1.025-24.397-10.415
							c-11.57-9.392-14.996-16.713-14.996-16.713L211.757,620.761z"/>
					</g>
					<g>
						<path fill="#AEE7FA" d="M157.752,620.761c0,0-29.076,33.76-47.645,26.771l-1.15-6.989c0,0,12.828-1.025,24.397-10.415
							c11.573-9.392,14.998-16.713,14.998-16.713L157.752,620.761z"/>
					</g>
				</g>
				<path id="XMLID_1_" fill="#89DBD3" d="M235.032,386.001l-5.59,32.362l-12.969-2.781l-0.072,19.204
					c-24.969,10.631-36.688,50.817-36.688,50.817s8.854-48.815,16.683-63.685c20.693-39.309,28.842-40.407,28.842-40.407"/>
				<g>
					<g>
						<path fill="#FFFFFF" d="M241.093,518.838c0.631-30.959-1.403-61.882-0.427-81.326c2.175-43.299,10.967-47.441,10.967-47.441
							s15.376,6.987,25.297,50.013c2.898,12.566,11.467,40.148,10.875,79.669c-0.466,31.166-5.288,35.429-12.955,39.374
							c-10.574,5.44-31.39,11.203-41.85,3.75C237.723,542.183,241.865,547.15,241.093,518.838z"/>
						<path fill="none" stroke="#AEE7FA" stroke-linecap="round" stroke-linejoin="round" stroke-miterlimit="10" d="
							M251.633,390.071c0,0,15.376,6.987,25.297,50.013c2.898,12.566,11.467,40.148,10.875,79.669
							c-0.466,31.166-5.288,35.429-12.955,39.374c-10.574,5.44-31.39,11.203-41.85,3.75"/>
						
							<path fill="none" stroke="#AEE7FA" stroke-width="2.9708" stroke-linecap="round" stroke-linejoin="round" stroke-miterlimit="10" d="
							M240.667,437.512"/>
						<path fill="#FFFFFF" d="M131.409,518.838c-0.613-30.959,1.436-61.882,0.471-81.326c-2.156-43.299-6.684-46.225-6.684-46.225
							s-18.17,8.005-26.047,38.591c-3.173,12.328-12.854,51.262-14.451,89.874c-1.293,31.275,5.061,39.228,12.861,42.92
							c11.411,5.401,45.334,0.063,53.646-1.567C146.344,540.457,130.624,547.15,131.409,518.838z"/>
						<path fill="none" stroke="#AEE7FA" stroke-linecap="round" stroke-linejoin="round" stroke-miterlimit="10" d="
							M125.196,391.288c0,0-18.17,8.005-26.047,38.591c-3.173,12.328-12.854,51.262-14.451,89.874
							c-1.293,31.275,5.061,39.228,12.861,42.92c11.411,5.401,45.334,0.063,53.646-1.567"/>
						<path fill="none" stroke="#AEE7FA" stroke-linecap="round" stroke-linejoin="round" stroke-miterlimit="10" d="
							M133.355,534.044c-3.294-33.17-1.667-37.361-1.062-69.338"/>
						<path fill="none" stroke="#AEE7FA" stroke-linecap="round" stroke-linejoin="round" stroke-miterlimit="10" d="
							M254.553,515.843c-2.854-27.276-4.578-53.674-5.221-79.143"/>
						<g>
							<path fill="#808195" d="M218.588,551.406c12.29,1.133,10.905-24.338,10.905-24.338s-20.759-11.778-21.6-1.219
								C207.042,536.554,218.588,551.406,218.588,551.406z"/>
							<g>
								<path fill="#FCBDA5" d="M206.661,513.566c6.189,0.026,17.901-8.734,27.793-2.234c9.974,6.554,16.459,13.697,16.459,13.697
									s-19.71-0.338-30.37,5.268c-10.733,5.65-21.349,15.253-21.349,15.253L206.661,513.566z"/>
								<path fill="#FFFFFF" d="M209.944,510.787c-2.796,5.163,11.245,36.387,12.689,41.685c0,0-48.687,6.868-78.932,10.39
									c-30.552,3.559-45.169-2.93-46.291-9.084c-1.901-10.428-0.034-47.553,19.711-39.188c12.126,5.137,31.168,7.358,49.02,3.247
									C183.899,513.748,209.944,510.787,209.944,510.787z"/>
								<path fill="none" stroke="#AEE7FA" stroke-linecap="round" stroke-linejoin="round" stroke-miterlimit="10" d="
									M222.633,552.471c-33.581,4.722-81.626,12.521-111.374,12.521"/>
								<path fill="none" stroke="#AEE7FA" stroke-linecap="round" stroke-linejoin="round" stroke-miterlimit="10" d="
									M166.142,517.835c17.757-4.088,43.802-7.049,43.802-7.049c-2.796,5.163,11.245,36.387,12.689,41.685"/>
							</g>
						</g>
						<g>
							<g>
								<path fill="#FCBDA5" d="M170.721,510.787c-6.129-0.742-20.423-10.238-30.863-5.021
									c-10.516,5.25-17.642,11.507-17.642,11.507s24.405,3.749,34.373,10.653c10.055,6.965,19.603,17.865,19.603,17.865
									L170.721,510.787z"/>
								<path fill="#FFFFFF" d="M170.208,510.683c-7.964,2.967-13.233,10.75-12.549,37.841c0,0,24.326,10.206,54.335,15.564
									c35.025,6.253,53.927,0.031,62.321-5.071c8.339-5.072,8.149-46.532-10-43.892c-6.401,0.931-33.717,11.393-52.854,5.827
									C193.875,515.838,170.208,510.683,170.208,510.683z"/>
							</g>
						</g>
						<path fill="#FCBDA5" d="M266.872,503.67c-2.24-1.559-4.9-0.913-8.853-0.744c-0.096,0.004-0.21,0.017-0.312,0.022
							c3.232-0.858,7.271-2.247,6.38-3.97c-1.271-2.455-3.806-1.591-9.278-0.366c-5.481,1.229-10.906,0.335-15.196,2.92
							c-4.307,2.598-14.913,6.771-21.024,8.727c0,0,21.84,7.62,27.285,8.01c5.447,0.394,6.764-3.039,6.764-3.039
							s2.572-0.886,6.688-1.558s5.796-2.252,4.473-3.296c-1.318-1.042-6.382-1.426-6.382-1.426s3.327-1.729,6.185-1.763
							C266.456,507.158,269.11,505.228,266.872,503.67z"/>
						<path fill="#FCBDA5" d="M254.873,513.409c-8.062,1.457-14.866,2.649-20.585,3.617c0.035,0.229,0.072,0.458,0.106,0.688
							c0.072,1.082,0.079,2.148,0.038,3.201c4.734-0.169,10.172-0.403,13.282-1.257c4.271-1.173,5.833-1.539,7.312-2.206
							C257.592,516.292,259.165,512.633,254.873,513.409z"/>
					</g>
					<path fill="none" stroke="#AEE7FA" stroke-linecap="round" stroke-linejoin="round" stroke-miterlimit="10" d="
						M151.756,525.068c-15.911-6.107-33.599-8.799-50.682-8.039"/>
					<path fill="none" stroke="#AEE7FA" stroke-linecap="round" stroke-linejoin="round" stroke-miterlimit="10" d="
						M275.285,558.898c-18.354,10.647-46.137,9.148-63.581,5.392c-11.857-2.557-22.86-6.716-34.23-10.054
						c-7.113-2.087-12.047-3.389-19.438-4.837c0,0-2.871-22.378,4.575-32.497"/>
					<path fill="none" stroke="#AEE7FA" stroke-linecap="round" stroke-linejoin="round" stroke-miterlimit="10" d="
						M170.721,510.787c11.459,1.938,46.055,16.234,67.065,11.556"/>
				</g>
			</g>
			<path id="XMLID_2_" fill="#89DBD3" d="M166.744,377.599l-15.269,5.345l-8.482,29.286l10.426-1.431l-7.015,21.358
				c14.007,12.98,21.298,54.047,21.298,54.047s1.793-34.564-1.146-57.795C161.133,385.567,166.744,377.599,166.744,377.599z"/>
			<g>
				<path fill="#2C9187" d="M185.614,400.749c0,0-15.624-12.779-17.511-26.396l-7.58,6.593c0,0-1.054,25.316,7.721,28.814
					C180.489,414.64,185.614,400.749,185.614,400.749z"/>
				<path fill="#2C9187" d="M185.614,400.749c0,0,22.044-8.198,31.028-26.396l7.584,6.593c0,0-12.188,28.236-23.385,28.814
					C185.008,410.577,185.614,400.749,185.614,400.749z"/>
			</g>
		</g>
		<g clip-path="url(#SVGID_2_)">
			<path fill="#FCC6BD" d="M213.406,348.063c0.907-5.513,2.093-10.192,2.093-10.192h-45.496c0,0,1.187,4.68,2.092,10.192
				c7.755,10.518,16.652,18.94,20.656,18.94C196.75,367.003,205.649,358.581,213.406,348.063z"/>
			<g>
				<path fill="#EB816C" d="M229.131,302.092c1.996-3.988,5.932-5.592,7.48-4.098c1.549,1.496,2.883,7.035,1.992,10.578
					c-0.887,3.545-4.541,11.41-6.758,13.183c-2.215,1.771-4.595,2.104-7.143,1.717L229.131,302.092z"/>
				<path fill="#EB816C" d="M156.366,302.092c-1.995-3.988-5.927-5.592-7.477-4.098c-1.552,1.496-2.883,7.035-1.991,10.578
					c0.884,3.545,4.537,11.41,6.755,13.183c2.218,1.771,4.594,2.104,7.145,1.717L156.366,302.092z"/>
			</g>
			<linearGradient id="SVGID_4_" gradientUnits="userSpaceOnUse" x1="192.7495" y1="314.8237" x2="192.7495" y2="257.3932">
				<stop  offset="0" style="stop-color:#FAD1B4"/>
				<stop  offset="1" style="stop-color:#F5B7A4"/>
			</linearGradient>
			<path fill="url(#SVGID_4_)" d="M192.75,239.839c-28.416,0-37.776,17.06-39.466,33.675c-1.693,16.616,0.677,35.224,6.651,52.727
				c5.976,17.501,26.162,29.354,32.814,29.354s26.837-11.853,32.812-29.354c5.975-17.503,8.345-36.11,6.652-52.727
				C230.524,256.899,221.168,239.839,192.75,239.839z"/>
			<path fill="#FCC6BD" d="M226.559,323.195c5.236-16.603,7.25-34.025,5.655-49.681c-1.69-16.615-11.046-33.675-39.464-33.675
				c-28.416,0-37.776,17.06-39.466,33.675c-1.528,15.004,0.265,31.633,5.027,47.605c0.054-0.146,0.107-0.293,0.165-0.437
				c2.268-7.7,10.61-19.555,10.798-34.52c0.19-14.966,4.463-21.511,7.307-22.508c2.846-0.998,8.808,4.32,8.808,4.32
				c4.409-4.984,12.808-13.984,19.023-5.39c6.218,8.593,18.285,31.469,20.696,45.706
				C225.988,313.464,226.518,318.503,226.559,323.195z"/>
			<path fill="#61302E" d="M185.389,267.976c0,0-13.701,0-19.35,0v-16.782h54.331v14.954
				C220.371,266.148,198.759,265.483,185.389,267.976z"/>
			<g>
				<linearGradient id="SVGID_5_" gradientUnits="userSpaceOnUse" x1="192.7495" y1="252.3506" x2="192.7495" y2="342.1173">
					<stop  offset="0" style="stop-color:#A35C4D"/>
					<stop  offset="1" style="stop-color:#6E2D28"/>
				</linearGradient>
				<path fill="url(#SVGID_5_)" d="M245.065,331.613c0,0,4.819,10.799,1.165,17.943c7.644-3.322,16.281-17.113,10.466-33.23
					c-5.815-16.116-11.795-20.27-13.625-35.724c-1.828-15.452-4.151-24.591-7.806-31.9c-6.823-13.295-18.218-20.381-33.61-22.154
					c-15.403-1.773-22.934,3.322-26.806,11.298c-13.288-3.211-20.274,2.771-24.613,10.855c-3.863,7.202-5.98,16.448-7.809,31.9
					c-1.825,15.454-7.807,19.607-13.625,35.724c-5.815,16.117,2.827,29.908,10.469,33.23c-3.653-7.145,1.164-17.943,1.164-17.943
					c-0.064,3.487,4.022,9.055,8.457,10.635c-1.213-6.397-2.166-17.805,1.807-24.648c3.318-7.308,13.232-17.882,15.51-32.676
					c2.272-14.792,7.529-20.271,10.373-21.267c2.846-0.998,8.808,4.32,8.808,4.32c4.409-4.984,12.203-14.066,19.438-6.313
					c7.236,7.752,22.057,28.947,26.223,42.774c4.166,13.828,5.633,27.01,0.746,35.318
					C238.76,338.646,243.617,335.654,245.065,331.613z"/>
				<path opacity="0.1" fill="#FFFFFF" d="M239.476,260.129c-15.691,4.544-27.89,2.893-27.89,2.893
					c8.406-3.445,16.686-9.903,22.979-15.627c0.237,0.43,0.468,0.864,0.699,1.307C236.915,252,238.289,255.673,239.476,260.129z
					 M145.664,261.178c13.711,3.22,23.88,1.844,23.88,1.844c-7.131-2.923-14.173-8.015-19.988-12.987
					C147.993,253.222,146.735,256.829,145.664,261.178z"/>
				<path fill="#6E2D28" d="M184.884,260.887c0,0,2.039-7.47,7.866-10.582C192.75,250.305,188.663,255.285,184.884,260.887z"/>
				<path fill="#6E2D28" d="M181.86,254.573c0,0,0.979-5.78,3.024-8.093C184.884,246.48,183.863,250.395,181.86,254.573z"/>
				<path fill="#6E2D28" d="M179.549,247.016c0,0,0-1.869,0.53-2.935C180.08,244.081,179.949,246.036,179.549,247.016z"/>
				<path fill="#A3524D" d="M148.892,342.248c-0.208-1.028-0.404-2.059-0.555-3.097c-0.16-1.039-0.294-2.08-0.396-3.125
					c-0.11-1.044-0.181-2.094-0.222-3.145c-0.012-0.524-0.048-1.05-0.04-1.577c0.005-0.525-0.013-1.052,0.009-1.576
					c0.021-0.526,0.023-1.053,0.063-1.579c0.04-0.524,0.068-1.052,0.121-1.576l0.188-1.57l0.277-1.561l0.366-1.543
					c0.146-0.51,0.314-1.012,0.468-1.52c0.185-0.496,0.393-0.985,0.587-1.479c0.234-0.48,0.484-0.949,0.724-1.424l-0.012,0.021
					c0.344-0.685,0.659-1.387,1.046-2.046c0.359-0.674,0.75-1.329,1.143-1.98c0.385-0.659,0.803-1.295,1.206-1.938l1.233-1.917
					c0.822-1.274,1.641-2.553,2.437-3.842l1.175-1.944l1.134-1.971l1.081-1.997l1.018-2.029c0.334-0.679,0.625-1.38,0.939-2.067
					c0.324-0.686,0.57-1.403,0.852-2.104c0.292-0.7,0.529-1.419,0.767-2.137c0.246-0.717,0.493-1.434,0.674-2.17
					c0.185-0.734,0.429-1.457,0.565-2.202l0.47-2.23l-0.376,2.249c-0.119,0.753-0.338,1.482-0.5,2.225
					c-0.162,0.744-0.384,1.471-0.608,2.2l-0.332,1.092c-0.114,0.364-0.258,0.716-0.386,1.075c-0.273,0.711-0.504,1.438-0.819,2.132
					c-0.303,0.698-0.58,1.408-0.906,2.098l-0.982,2.061l-1.06,2.025l-1.123,1.987l-1.17,1.962c-0.792,1.296-1.6,2.584-2.416,3.865
					l-1.221,1.923c-0.394,0.646-0.812,1.28-1.2,1.93c-0.396,0.645-0.783,1.292-1.146,1.954c-0.388,0.649-0.697,1.335-1.041,2.005
					l-0.009,0.022c-0.238,0.458-0.484,0.911-0.708,1.375c-0.193,0.479-0.4,0.955-0.582,1.438c-0.156,0.495-0.32,0.985-0.469,1.484
					l-0.371,1.514l-0.284,1.533l-0.219,1.549c-0.06,0.517-0.097,1.038-0.147,1.556c-0.047,0.52-0.062,1.043-0.09,1.563
					c-0.034,0.521-0.025,1.046-0.037,1.566c-0.02,0.522,0.003,1.046,0.01,1.569c0.002,0.521,0.033,1.044,0.056,1.566
					c0.015,0.523,0.053,1.044,0.088,1.567c0.067,1.044,0.167,2.087,0.292,3.127C148.576,340.173,148.729,341.211,148.892,342.248z"
					/>
				<path fill="#A3524D" d="M204.827,261.663c0,0,0.234,0.245,0.672,0.705c0.219,0.229,0.491,0.514,0.809,0.848
					c0.303,0.344,0.657,0.741,1.051,1.185c0.396,0.442,0.824,0.941,1.28,1.493c0.456,0.551,0.964,1.134,1.477,1.784
					c0.516,0.647,1.065,1.334,1.643,2.061c0.559,0.738,1.149,1.515,1.768,2.325c0.597,0.823,1.222,1.68,1.867,2.567
					c0.632,0.897,1.281,1.826,1.953,2.78c0.655,0.967,1.327,1.96,2.015,2.974c0.674,1.023,1.333,2.087,2.017,3.16
					c0.657,1.091,1.325,2.2,2.003,3.323c0.643,1.139,1.33,2.279,1.965,3.457c0.63,1.182,1.291,2.356,1.882,3.579
					c0.303,0.606,0.609,1.213,0.915,1.821l0.853,1.858c0.582,1.232,1.044,2.522,1.552,3.783c0.239,0.637,0.435,1.291,0.654,1.932
					l0.321,0.964l0.274,0.97c0.749,2.556,1.387,5.135,1.918,7.625c0.553,2.492,0.902,4.941,1.153,7.27
					c0.265,2.327,0.314,4.551,0.293,6.593c-0.051,2.047-0.253,3.918-0.572,5.55c-0.138,0.82-0.368,1.566-0.524,2.266
					c-0.213,0.688-0.431,1.31-0.616,1.876c-0.454,1.101-0.836,1.953-1.177,2.496c-0.311,0.554-0.475,0.85-0.475,0.85
					s0.147-0.305,0.426-0.878c0.124-0.29,0.334-0.622,0.479-1.061c0.16-0.43,0.344-0.923,0.55-1.476
					c0.16-0.569,0.351-1.195,0.526-1.881c0.124-0.7,0.321-1.443,0.418-2.259c0.105-0.814,0.23-1.676,0.266-2.598
					c0.076-0.914,0.084-1.883,0.099-2.892c-0.034-2.016-0.144-4.204-0.468-6.497c-0.307-2.293-0.733-4.697-1.284-7.165
					c-0.549-2.472-1.193-4.986-1.965-7.544l-0.283-0.954l-0.321-0.941c-0.224-0.626-0.418-1.26-0.659-1.884
					c-0.514-1.238-0.978-2.497-1.559-3.711l-0.825-1.843c-0.299-0.603-0.592-1.208-0.886-1.811
					c-0.575-1.214-1.226-2.385-1.841-3.562c-0.617-1.176-1.287-2.313-1.917-3.452c-0.662-1.122-1.317-2.229-1.964-3.32
					c-0.667-1.077-1.322-2.136-1.962-3.172c-0.656-1.031-1.296-2.035-1.922-3.016c-0.642-0.968-1.268-1.91-1.869-2.821
					c-0.621-0.901-1.222-1.771-1.797-2.607c-1.181-1.651-2.251-3.169-3.234-4.494c-0.48-0.669-0.966-1.271-1.394-1.842
					c-0.431-0.57-0.834-1.086-1.209-1.542c-0.371-0.463-0.699-0.876-0.986-1.235c-0.301-0.352-0.55-0.651-0.756-0.893
					C205.047,261.921,204.827,261.663,204.827,261.663z"/>
			</g>
		</g>
	</g>
</g>
<g id="Layer_4">
</g>
<g id="Layer_2">
</g>
<g id="Layer_1">
	<g>
		<g>
			<g>
				<polygon fill="#FFFFFF" points="77.136,135.509 113.217,138.65 123.997,106.834 93.438,87.397 				"/>
			</g>
			<g>
				<path fill="#FFFFFF" d="M117.741,162.098L117.741,162.098c1.988,0.673,4.234-0.149,5.576-2.042l11.611-16.382l-9.734-3.299
					l-9.533,13.449C113.532,156.826,114.588,161.031,117.741,162.098z"/>
			</g>
			<g>
				<path fill="#FFFFFF" d="M112.784,138.501l16.979,5.754c8.786,2.977,18.322-1.733,21.299-10.518l0,0
					c2.976-8.788-1.733-18.321-10.52-21.299l-16.979-5.751L112.784,138.501z"/>
			</g>
			<g>
				<path fill="#FFFFFF" d="M81.413,100.05c0.15,0,0.299-0.053,0.421-0.159c0.273-0.233,0.304-0.642,0.07-0.914L68.168,83.004
					c-0.233-0.273-0.643-0.303-0.914-0.068c-0.271,0.233-0.303,0.643-0.069,0.914L80.92,99.824
					C81.048,99.974,81.23,100.05,81.413,100.05z"/>
			</g>
			<g>
				<path fill="#FFFFFF" d="M54.663,122.487c0.044,0,0.089-0.004,0.133-0.013l20.616-4.336c0.351-0.074,0.574-0.419,0.5-0.769
					c-0.072-0.35-0.417-0.578-0.769-0.502l-20.614,4.336c-0.351,0.074-0.575,0.418-0.502,0.77
					C54.093,122.278,54.362,122.487,54.663,122.487z"/>
			</g>
			<g>
				<path fill="#FFFFFF" d="M77.419,109.526c0.271,0,0.523-0.171,0.615-0.442c0.114-0.338-0.067-0.707-0.407-0.822l-16.825-5.702
					c-0.337-0.114-0.707,0.068-0.823,0.407c-0.115,0.341,0.067,0.708,0.407,0.824l16.824,5.699
					C77.279,109.515,77.351,109.526,77.419,109.526z"/>
			</g>
		</g>
		<g>
			<path fill="#FFFFFF" d="M75.414,140.639c0.622,0,1.203-0.39,1.419-1.011l19.036-54.771c0.272-0.784-0.142-1.641-0.926-1.913
				c-0.785-0.272-1.639,0.141-1.913,0.926l-19.035,54.772c-0.272,0.784,0.142,1.641,0.926,1.912
				C75.084,140.611,75.249,140.639,75.414,140.639z"/>
		</g>
	</g>
	<g>
		<g>
			<path fill="#FFFFFF" d="M585.035,442.309c-0.77,2.332-1.822,4.278-3.161,5.841c-1.34,1.562-2.915,2.728-4.725,3.496
				c-1.812,0.77-3.732,1.153-5.766,1.153c-3.026,0-5.444-0.471-7.254-1.413c-1.812-0.942-3.188-1.959-4.129-3.051
				c-1.291,1.142-2.84,2.17-4.65,3.088s-3.932,1.376-6.361,1.376c-1.885,0-3.658-0.335-5.319-1.004
				c-1.662-0.67-3.113-1.624-4.352-2.864c-1.241-1.239-2.208-2.74-2.902-4.502c-0.694-1.76-1.041-3.757-1.041-5.988
				c0-2.629,0.458-5.084,1.376-7.366c0.917-2.28,2.145-4.252,3.683-5.914c1.537-1.661,3.311-2.977,5.319-3.943
				s4.104-1.451,6.287-1.451c2.578,0,4.674,0.484,6.286,1.451c1.611,0.967,2.939,2.17,3.98,3.608l0.818-3.943l8.779,1.414
				l-3.497,20.013c-0.1,0.397-0.161,0.807-0.186,1.228c-0.025,0.422-0.037,0.781-0.037,1.079c0,1.339,0.471,2.455,1.413,3.348
				s2.281,1.339,4.018,1.339c1.34,0,2.578-0.321,3.72-0.967c1.141-0.644,2.133-1.611,2.977-2.901
				c0.843-1.289,1.512-2.876,2.009-4.762c0.495-1.884,0.744-4.066,0.744-6.547c0-3.422-0.744-6.733-2.232-9.933
				c-1.488-3.198-3.534-6.025-6.138-8.481c-2.604-2.455-5.704-4.413-9.3-5.877c-3.597-1.463-7.478-2.194-11.644-2.194
				c-4.216,0-8.122,0.78-11.718,2.343c-3.597,1.563-6.708,3.683-9.337,6.361s-4.687,5.815-6.175,9.411
				c-1.488,3.597-2.232,7.429-2.232,11.495c0,4.117,0.744,7.96,2.232,11.531s3.559,6.685,6.212,9.337
				c2.653,2.653,5.815,4.749,9.486,6.287c3.67,1.536,7.712,2.306,12.127,2.306c3.72,0,6.98-0.422,9.783-1.265
				c2.802-0.844,5.617-2.083,8.444-3.72l1.487,2.381c-2.877,1.735-5.914,3.1-9.113,4.092c-3.199,0.991-6.733,1.488-10.602,1.488
				c-4.762,0-9.164-0.855-13.206-2.567c-4.043-1.711-7.552-4.043-10.527-6.993s-5.295-6.386-6.956-10.304
				c-1.662-3.918-2.492-8.109-2.492-12.573s0.843-8.668,2.529-12.61c1.686-3.943,3.992-7.391,6.919-10.342
				c2.926-2.95,6.373-5.294,10.342-7.03c3.967-1.736,8.232-2.604,12.796-2.604c4.563,0,8.816,0.818,12.76,2.455
				c3.942,1.637,7.377,3.82,10.304,6.547c2.926,2.729,5.22,5.866,6.882,9.412c1.661,3.546,2.492,7.229,2.492,11.048
				C586.188,437.25,585.803,439.978,585.035,442.309z M558.512,429.327c-1.29-1.265-2.951-1.897-4.984-1.897
				c-1.19,0-2.332,0.273-3.423,0.818c-1.092,0.547-2.046,1.278-2.864,2.195c-0.818,0.918-1.464,2.021-1.935,3.311
				c-0.472,1.29-0.706,2.679-0.706,4.166c0,2.332,0.644,4.118,1.934,5.357c1.289,1.24,2.977,1.859,5.06,1.859
				c1.19,0,2.317-0.271,3.385-0.818c1.066-0.545,2.009-1.302,2.827-2.269c0.818-0.968,1.463-2.096,1.935-3.386
				c0.471-1.289,0.707-2.702,0.707-4.24C560.447,432.292,559.801,430.591,558.512,429.327z"/>
		</g>
	</g>
	<g>
		<g>
			<polyline fill="#FFFFFF" points="367.352,420.15 412.833,387.519 457.296,420.826 			"/>
			<rect x="367.241" y="420.043" fill="#FFFFFF" width="89.211" height="29.692"/>
		</g>
		<g>
			<polygon fill="#E8E8E8" points="457.24,467.207 366.733,467.207 366.733,420.043 411.31,442.973 457.24,420.043 			"/>
			<polygon fill="#FFFFFF" points="411.31,442.973 457.24,467.207 366.733,467.207 			"/>
			
				<line fill="none" stroke="#FFFFFF" stroke-width="1.0049" stroke-miterlimit="10" x1="411.31" y1="443.312" x2="366.733" y2="420.043"/>
			
				<line fill="none" stroke="#FFFFFF" stroke-width="1.0049" stroke-miterlimit="10" x1="411.141" y1="443.312" x2="457.24" y2="420.043"/>
		</g>
	</g>
</g>
</svg>
