<?xml version="1.0" encoding="utf-8"?>
<!-- Generator: Adobe Illustrator 26.0.1, SVG Export Plug-In . SVG Version: 6.00 Build 0)  -->
<svg version="1.1" id="Calque_2_00000004538100096263532360000018035548587894480528_"
	 xmlns="http://www.w3.org/2000/svg" xmlns:xlink="http://www.w3.org/1999/xlink" x="0px" y="0px" viewBox="0 0 512 512"
	 style="enable-background:new 0 0 512 512;" xml:space="preserve">
<style type="text/css">
	.st0{fill-rule:evenodd;clip-rule:evenodd;}
	.st1{fill-rule:evenodd;clip-rule:evenodd;fill:#FFFFFF;stroke:#000000;stroke-width:3;stroke-miterlimit:10;}
</style>
<g>
	<path class="st0" d="M249.5,237.2h14.4v118.1c0,9.6,6.6,17.7,16,19.5c19,3.8,32.2,12,32.2,21.6c0,0.5,0,1-0.1,1.4H200.2
		c-0.1-0.5-0.1-1-0.1-1.4c0-9.7,13.6-18,33.2-21.8c9.5-1.8,16.2-9.9,16.2-19.6L249.5,237.2L249.5,237.2z"/>
	<path class="st1" d="M246.1,131.5c-4.8,13.6-23.3,34.7-39.7,31.5c-15.3-3-16.5-29.7,19.6-47.3c6.5-1.9,12.9-4.2,19.3-6.4
		c55.5-20.5,122.6,11.1,111.3,74.6c-4.3,24.5-17,44.2-37.5,60.6c-14.7,10.3-28.9,16.7-44.8,24.7c-3.4,1.7-6.8,3.4-10.1,5.1
		c-7.9,5-12,6.4-17.5,13.8c-6.9,10.2-10.8,15.9-7.5,28.6c1.9,7.4,2.3,7.4,7,13.5c12.4,12.4,31.9,19.2,36.2,35.4
		c3.4,12.6-7.2,28.5-18.8,38.2c-2.1,1.7-4.2,3.3-6.3,4.6c-6.7,4.1-15.1,7.5-18.8,14.8c-0.7,1.3-2.1,5.2-3.4,5
		c-2.8-0.5-1.1-4,1.2-7.1c2-2.8,3.8-4.8,6.4-6.9c3.4-2.6,6.9-4.8,8.6-5.9c8.3-5.5,18.7-14.6,22.9-23.5c10.6-22.5-24-35.3-38.3-49.6
		c-10.3-10.3-16.4-22.3-12.3-37.5c6.8-25.6,43-39.5,64.8-52.9c5.3-3.8,10.7-7.5,16-11.3c18.1-14.2,30.4-24.8,34.2-45.4
		c1.5-8.1,1.5-13.9-0.1-21.9c-5.1-25.9-22.3-44.5-49.6-47.2c-5.2-0.5-9.8,0.1-14.9,0.8C263.6,121.2,255.8,123.7,246.1,131.5z"/>
	<path class="st0" d="M199,157.3c1.1-0.6,2.5-0.2,3.1,0.9c0.6,1.1,0.2,2.5-0.9,3.1c-1.8,1-1.7,2.1-1.7,3.4c0,1.8,0,3.9-1.6,6.2
		c-0.7,1-1.7,1.7-2.7,2.2c-0.9,0.5-1.8,0.8-2.5,1.1c-1.2,0.4-2.5-0.2-2.9-1.3c-0.4-1.2,0.2-2.5,1.4-2.9c0.6-0.2,1.4-0.5,2-0.8
		c0.5-0.2,0.9-0.5,1.1-0.8c0.8-1.2,0.8-2.5,0.8-3.6C194.9,161.9,194.9,159.5,199,157.3z"/>
	<path class="st0" d="M142.8,177.5h227.7c2.9,0,5.3,2.4,5.3,5.3c0,2.9-2.4,5.3-5.3,5.3h-1.3c-2.1,25.7-51.7,46.3-112.6,46.3
		S146.1,213.8,144,188.1h-1.3c-2.9,0-5.3-2.4-5.3-5.3C137.5,179.9,139.9,177.5,142.8,177.5z"/>
	<rect x="249.5" y="254.4" class="st0" width="14.4" height="67.1"/>
</g>
</svg>
